<svg xmlns="http://www.w3.org/2000/svg" xmlns:xlink="http://www.w3.org/1999/xlink" width="100" zoomAndPan="magnify" viewBox="0 0 75 74.999997" height="100" preserveAspectRatio="xMidYMid meet" version="1.0"><defs><clipPath id="f752275bfc"><path d="M 36 57 L 50 57 L 50 67.203125 L 36 67.203125 Z M 36 57 " clip-rule="nonzero"/></clipPath><clipPath id="35660b7e89"><path d="M 57 19 L 62.304688 19 L 62.304688 25 L 57 25 Z M 57 19 " clip-rule="nonzero"/></clipPath><clipPath id="b4f626ff25"><path d="M 45 8.703125 L 62 8.703125 L 62 25 L 45 25 Z M 45 8.703125 " clip-rule="nonzero"/></clipPath><clipPath id="00c1188e66"><path d="M 45 8.703125 L 50 8.703125 L 50 13 L 45 13 Z M 45 8.703125 " clip-rule="nonzero"/></clipPath><clipPath id="71adaf6876"><path d="M 45 8.703125 L 48 8.703125 L 48 11 L 45 11 Z M 45 8.703125 " clip-rule="nonzero"/></clipPath><clipPath id="cc4e614542"><path d="M 12.804688 39 L 19 39 L 19 47 L 12.804688 47 Z M 12.804688 39 " clip-rule="nonzero"/></clipPath></defs><path fill="#ffffff" d="M 30.976562 52.691406 C 30.976562 52.691406 29.933594 51.914062 28.679688 52.199219 C 27.597656 52.449219 27.273438 53.199219 27.273438 53.199219 C 27.273438 53.199219 26.460938 53.84375 26.136719 54.429688 C 25.816406 55.019531 25.367188 58.121094 25.421875 60.382812 C 25.472656 62.644531 25.730469 63.976562 26.445312 64.664062 C 27.039062 65.238281 27.980469 65.375 30.511719 65.355469 C 33.089844 65.335938 33.621094 64.792969 33.9375 64.007812 C 34.257812 63.21875 34.363281 61.128906 32.050781 59.878906 C 32.050781 59.878906 31.285156 58.71875 31.363281 56.96875 C 31.363281 56.96875 32.410156 56.285156 32.117188 54.726562 C 31.871094 53.410156 30.976562 52.691406 30.976562 52.691406 Z M 30.976562 52.691406 " fill-opacity="1" fill-rule="evenodd"/><path fill="#000000" d="M 30.882812 52.808594 C 30.816406 52.757812 29.855469 52.082031 28.710938 52.347656 C 27.714844 52.574219 27.410156 53.257812 27.410156 53.257812 C 27.398438 53.277344 27.382812 53.300781 27.363281 53.3125 C 27.363281 53.3125 26.578125 53.933594 26.269531 54.5 C 26.175781 54.671875 26.078125 55.058594 25.976562 55.574219 C 25.742188 56.820312 25.535156 58.804688 25.570312 60.375 C 25.597656 61.496094 25.671875 62.382812 25.832031 63.078125 C 25.984375 63.746094 26.210938 64.226562 26.546875 64.554688 C 26.828125 64.824219 27.1875 64.988281 27.777344 65.085938 C 28.398438 65.1875 29.257812 65.214844 30.507812 65.207031 C 32.972656 65.1875 33.492188 64.699219 33.796875 63.949219 C 34.101562 63.199219 34.191406 61.203125 31.976562 60.007812 C 31.957031 59.996094 31.9375 59.980469 31.921875 59.957031 C 31.921875 59.957031 31.128906 58.761719 31.210938 56.960938 C 31.214844 56.914062 31.238281 56.867188 31.277344 56.84375 C 31.277344 56.84375 32.238281 56.203125 31.96875 54.753906 C 31.742188 53.53125 30.929688 52.84375 30.882812 52.808594 Z M 31.070312 52.574219 C 31.070312 52.574219 32.007812 53.324219 32.265625 54.699219 C 32.53125 56.121094 31.746094 56.859375 31.511719 57.042969 C 31.464844 58.539062 32.042969 59.578125 32.15625 59.765625 C 34.535156 61.070312 34.40625 63.246094 34.078125 64.0625 C 33.746094 64.882812 33.207031 65.484375 30.511719 65.503906 C 29.238281 65.515625 28.359375 65.484375 27.726562 65.378906 C 27.0625 65.269531 26.65625 65.074219 26.339844 64.769531 C 25.964844 64.410156 25.707031 63.882812 25.539062 63.144531 C 25.378906 62.4375 25.300781 61.527344 25.273438 60.386719 C 25.234375 58.792969 25.445312 56.785156 25.683594 55.519531 C 25.792969 54.960938 25.90625 54.542969 26.007812 54.359375 C 26.304688 53.816406 27.003906 53.222656 27.152344 53.105469 C 27.234375 52.945312 27.625 52.292969 28.644531 52.058594 C 29.96875 51.753906 31.070312 52.570312 31.070312 52.570312 C 31.066406 52.570312 31.070312 52.574219 31.070312 52.574219 Z M 31.070312 52.574219 " fill-opacity="1" fill-rule="evenodd"/><path fill="#000000" d="M 27.140625 53.121094 C 27.183594 53.050781 27.277344 53.027344 27.347656 53.070312 C 27.417969 53.113281 27.441406 53.203125 27.398438 53.273438 C 27.398438 53.273438 26.351562 55 28.054688 56.429688 C 28.117188 56.484375 28.125 56.578125 28.074219 56.640625 C 28.019531 56.703125 27.925781 56.710938 27.859375 56.660156 C 25.953125 55.054688 27.140625 53.121094 27.140625 53.121094 Z M 27.140625 53.121094 " fill-opacity="1" fill-rule="evenodd"/><path fill="#000000" d="M 31.269531 56.851562 C 31.332031 56.800781 31.425781 56.808594 31.480469 56.875 C 31.53125 56.9375 31.519531 57.03125 31.457031 57.082031 C 31.457031 57.082031 30.375 57.953125 28.960938 57.304688 C 28.882812 57.269531 28.851562 57.183594 28.886719 57.105469 C 28.921875 57.03125 29.011719 57 29.085938 57.035156 C 30.324219 57.601562 31.269531 56.851562 31.269531 56.851562 Z M 31.269531 56.851562 " fill-opacity="1" fill-rule="evenodd"/><path fill="#000000" d="M 32.109375 59.738281 C 32.183594 59.769531 32.222656 59.855469 32.191406 59.933594 C 32.160156 60.007812 32.070312 60.042969 31.996094 60.015625 C 31.996094 60.015625 29.910156 59.171875 28.238281 61.035156 C 28.183594 61.097656 28.085938 61.101562 28.027344 61.046875 C 27.964844 60.992188 27.957031 60.898438 28.015625 60.835938 C 29.835938 58.808594 32.109375 59.738281 32.109375 59.738281 Z M 32.109375 59.738281 " fill-opacity="1" fill-rule="evenodd"/><path fill="#000000" d="M 27.277344 64.386719 C 27.195312 64.363281 27.152344 64.28125 27.175781 64.203125 C 27.199219 64.121094 27.28125 64.078125 27.363281 64.101562 C 27.363281 64.101562 28.472656 64.429688 30.527344 64.375 C 32.273438 64.328125 32.894531 64.097656 33.171875 63.953125 C 33.246094 63.914062 33.339844 63.941406 33.375 64.015625 C 33.414062 64.089844 33.386719 64.179688 33.3125 64.214844 C 33.019531 64.367188 32.371094 64.625 30.535156 64.671875 C 28.417969 64.730469 27.277344 64.386719 27.277344 64.386719 Z M 27.277344 64.386719 " fill-opacity="1" fill-rule="evenodd"/><g clip-path="url(#f752275bfc)"><path fill="#ffffff" d="M 37.417969 57.742188 C 37.417969 57.742188 36.648438 58.085938 36.605469 58.988281 C 36.558594 59.992188 37.1875 60.414062 37.1875 60.414062 C 37.1875 60.414062 37.046875 62.929688 37.183594 64.34375 C 37.320312 65.753906 37.410156 65.90625 37.660156 66.15625 C 37.914062 66.402344 41.480469 67.054688 43.867188 67.042969 C 46.257812 67.03125 48.722656 65.976562 48.933594 65.558594 C 49.148438 65.136719 49.066406 62.851562 47.851562 61.613281 C 46.640625 60.378906 44.710938 60.378906 43.800781 60.878906 C 43.800781 60.878906 42.46875 60.144531 42.066406 59.675781 C 42.066406 59.675781 42.464844 58.859375 42.027344 58.121094 C 41.609375 57.421875 40.859375 57.277344 39.75 57.324219 C 38.640625 57.371094 37.417969 57.742188 37.417969 57.742188 Z M 37.417969 57.742188 " fill-opacity="1" fill-rule="evenodd"/><path fill="#000000" d="M 37.46875 57.882812 C 37.394531 57.921875 36.789062 58.238281 36.753906 58.996094 C 36.710938 59.902344 37.269531 60.289062 37.269531 60.289062 C 37.3125 60.316406 37.335938 60.367188 37.335938 60.421875 C 37.335938 60.421875 37.195312 62.921875 37.332031 64.328125 C 37.460938 65.664062 37.527344 65.8125 37.765625 66.050781 C 37.777344 66.0625 37.804688 66.070312 37.839844 66.085938 C 37.925781 66.121094 38.050781 66.15625 38.210938 66.199219 C 39.320312 66.492188 41.96875 66.902344 43.867188 66.894531 C 45.515625 66.886719 47.199219 66.375 48.132812 65.925781 C 48.367188 65.816406 48.550781 65.707031 48.675781 65.613281 C 48.738281 65.566406 48.78125 65.527344 48.800781 65.492188 C 48.859375 65.375 48.882812 65.109375 48.875 64.757812 C 48.847656 63.894531 48.566406 62.554688 47.746094 61.71875 C 46.585938 60.539062 44.742188 60.53125 43.871094 61.007812 C 43.828125 61.03125 43.773438 61.03125 43.726562 61.007812 C 43.726562 61.007812 42.363281 60.253906 41.949219 59.773438 C 41.910156 59.730469 41.902344 59.664062 41.929688 59.613281 C 41.929688 59.613281 42.296875 58.867188 41.894531 58.195312 C 41.507812 57.542969 40.792969 57.429688 39.753906 57.476562 C 38.726562 57.519531 37.589844 57.847656 37.46875 57.882812 Z M 37.371094 57.601562 C 37.371094 57.601562 38.617188 57.226562 39.742188 57.175781 C 40.917969 57.125 41.710938 57.300781 42.152344 58.042969 C 42.539062 58.6875 42.332031 59.390625 42.238281 59.644531 C 42.621094 60.03125 43.539062 60.558594 43.800781 60.707031 C 44.777344 60.226562 46.726562 60.253906 47.957031 61.511719 C 48.835938 62.402344 49.144531 63.824219 49.171875 64.75 C 49.1875 65.167969 49.136719 65.488281 49.070312 65.625 C 49.035156 65.6875 48.964844 65.765625 48.855469 65.851562 C 48.722656 65.953125 48.519531 66.074219 48.265625 66.195312 C 47.304688 66.65625 45.566406 67.183594 43.867188 67.191406 C 41.941406 67.199219 39.261719 66.785156 38.136719 66.488281 C 37.925781 66.433594 37.769531 66.382812 37.675781 66.339844 C 37.617188 66.3125 37.578125 66.285156 37.554688 66.261719 C 37.289062 66 37.175781 65.84375 37.03125 64.355469 C 36.910156 63.082031 37.007812 60.917969 37.03125 60.480469 C 36.855469 60.332031 36.414062 59.863281 36.453125 58.980469 C 36.5 57.984375 37.351562 57.609375 37.351562 57.609375 C 37.359375 57.605469 37.367188 57.601562 37.371094 57.601562 Z M 37.371094 57.601562 " fill-opacity="1" fill-rule="evenodd"/></g><path fill="#000000" d="M 41.925781 59.617188 C 41.957031 59.542969 42.042969 59.507812 42.121094 59.539062 C 42.199219 59.570312 42.234375 59.65625 42.199219 59.734375 C 42.199219 59.734375 42.007812 60.203125 41.375 60.453125 C 41.296875 60.484375 41.210938 60.445312 41.179688 60.371094 C 41.148438 60.292969 41.1875 60.207031 41.261719 60.175781 C 41.765625 59.976562 41.925781 59.617188 41.925781 59.617188 Z M 41.925781 59.617188 " fill-opacity="1" fill-rule="evenodd"/><path fill="#000000" d="M 37.105469 60.539062 C 37.035156 60.492188 37.015625 60.402344 37.058594 60.332031 C 37.101562 60.261719 37.195312 60.242188 37.265625 60.285156 C 37.265625 60.285156 38.105469 60.804688 39.539062 60.613281 C 39.621094 60.605469 39.699219 60.660156 39.707031 60.742188 C 39.71875 60.824219 39.660156 60.898438 39.578125 60.910156 C 38.019531 61.117188 37.105469 60.539062 37.105469 60.539062 Z M 37.105469 60.539062 " fill-opacity="1" fill-rule="evenodd"/><path fill="#000000" d="M 43.738281 60.742188 C 43.8125 60.707031 43.902344 60.738281 43.9375 60.8125 C 43.96875 60.890625 43.9375 60.976562 43.863281 61.011719 C 43.863281 61.011719 43.113281 61.355469 42.410156 62.472656 C 42.367188 62.542969 42.273438 62.5625 42.203125 62.519531 C 42.132812 62.476562 42.113281 62.382812 42.15625 62.3125 C 42.914062 61.105469 43.738281 60.742188 43.738281 60.742188 Z M 43.738281 60.742188 " fill-opacity="1" fill-rule="evenodd"/><path fill="#000000" d="M 37.957031 65.574219 C 37.878906 65.546875 37.835938 65.464844 37.863281 65.386719 C 37.886719 65.308594 37.972656 65.265625 38.050781 65.289062 C 38.050781 65.289062 40.730469 66.152344 44.027344 66.0625 C 44.109375 66.058594 44.179688 66.125 44.183594 66.207031 C 44.183594 66.289062 44.117188 66.359375 44.035156 66.359375 C 40.679688 66.453125 37.957031 65.574219 37.957031 65.574219 Z M 37.957031 65.574219 " fill-opacity="1" fill-rule="evenodd"/><path fill="#000000" d="M 44.867188 66.28125 C 44.785156 66.289062 44.710938 66.230469 44.703125 66.148438 C 44.695312 66.066406 44.753906 65.992188 44.835938 65.984375 C 44.835938 65.984375 46.636719 65.808594 48.371094 64.921875 C 48.445312 64.886719 48.539062 64.914062 48.574219 64.988281 C 48.613281 65.058594 48.582031 65.152344 48.511719 65.1875 C 46.722656 66.097656 44.867188 66.28125 44.867188 66.28125 Z M 44.867188 66.28125 " fill-opacity="1" fill-rule="evenodd"/><path fill="#f68c89" d="M 29.039062 52.851562 C 28.796875 53.082031 28.332031 53.933594 28.695312 54.769531 C 29.085938 55.664062 30.097656 55.960938 30.667969 55.925781 C 31.164062 55.890625 37.203125 55.023438 39.9375 52.535156 C 42.824219 49.90625 43.671875 47.449219 43.964844 45.652344 C 44.257812 43.851562 39.292969 46.34375 39.292969 46.34375 C 39.292969 46.34375 38.4375 49.382812 35.125 50.90625 C 31.996094 52.347656 29.339844 52.558594 29.039062 52.851562 Z M 29.039062 52.851562 " fill-opacity="1" fill-rule="evenodd"/><path fill="#000000" d="M 29.140625 52.957031 C 28.921875 53.167969 28.5 53.949219 28.835938 54.710938 C 29.195312 55.535156 30.128906 55.808594 30.65625 55.777344 C 31.148438 55.742188 37.128906 54.886719 39.835938 52.425781 C 42.691406 49.828125 43.527344 47.402344 43.820312 45.625 C 43.84375 45.46875 43.824219 45.355469 43.753906 45.277344 C 43.699219 45.222656 43.617188 45.1875 43.519531 45.167969 C 43.398438 45.144531 43.257812 45.144531 43.101562 45.15625 C 41.882812 45.261719 39.789062 46.269531 39.417969 46.449219 C 39.273438 46.902344 38.28125 49.621094 35.1875 51.042969 C 32.988281 52.058594 31.019531 52.464844 29.929688 52.71875 C 29.660156 52.785156 29.445312 52.835938 29.296875 52.886719 C 29.222656 52.910156 29.167969 52.933594 29.140625 52.957031 Z M 28.933594 52.742188 C 28.96875 52.707031 29.03125 52.667969 29.117188 52.632812 C 29.273438 52.570312 29.523438 52.507812 29.859375 52.429688 C 30.933594 52.175781 32.882812 51.773438 35.0625 50.769531 C 38.308594 49.277344 39.148438 46.304688 39.148438 46.304688 C 39.160156 46.261719 39.1875 46.230469 39.222656 46.210938 C 39.222656 46.210938 41.695312 44.976562 43.074219 44.859375 C 43.480469 44.824219 43.800781 44.894531 43.972656 45.074219 C 44.097656 45.207031 44.160156 45.398438 44.117188 45.675781 C 43.816406 47.496094 42.964844 49.984375 40.039062 52.644531 C 37.277344 55.15625 31.179688 56.039062 30.679688 56.074219 C 30.066406 56.113281 28.980469 55.789062 28.5625 54.832031 C 28.164062 53.921875 28.671875 52.996094 28.933594 52.742188 Z M 28.933594 52.742188 " fill-opacity="1" fill-rule="evenodd"/><path fill="#f68c89" d="M 31.535156 47.3125 C 31.535156 47.3125 36.054688 51.84375 37.382812 58.265625 C 37.382812 58.265625 37.695312 58.769531 39.003906 58.695312 C 40.3125 58.625 40.914062 58.015625 40.945312 57.820312 C 40.976562 57.625 40.269531 53.984375 39.269531 51.5625 C 38.246094 49.09375 36.398438 46.523438 36.398438 46.523438 Z M 31.535156 47.3125 " fill-opacity="1" fill-rule="evenodd"/><path fill="#000000" d="M 40.796875 57.804688 C 40.792969 57.78125 40.773438 57.578125 40.730469 57.355469 C 40.535156 56.25 39.925781 53.546875 39.128906 51.621094 C 38.21875 49.414062 36.640625 47.128906 36.328125 46.6875 L 31.839844 47.414062 C 32.722656 48.371094 36.34375 52.558594 37.523438 58.203125 C 37.589844 58.277344 37.941406 58.605469 38.996094 58.546875 C 39.742188 58.503906 40.246094 58.285156 40.535156 58.074219 C 40.644531 57.996094 40.71875 57.921875 40.765625 57.855469 C 40.78125 57.835938 40.792969 57.816406 40.796875 57.804688 Z M 31.511719 47.164062 L 36.375 46.378906 C 36.429688 46.367188 36.488281 46.390625 36.519531 46.4375 C 36.519531 46.4375 38.382812 49.019531 39.410156 51.507812 C 40.210938 53.457031 40.828125 56.1875 41.027344 57.300781 C 41.082031 57.605469 41.101562 57.800781 41.09375 57.84375 C 41.082031 57.921875 41.015625 58.050781 40.863281 58.191406 C 40.578125 58.457031 39.980469 58.792969 39.011719 58.84375 C 37.585938 58.921875 37.253906 58.34375 37.253906 58.34375 C 37.246094 58.328125 37.238281 58.3125 37.234375 58.292969 C 35.917969 51.914062 31.429688 47.414062 31.429688 47.414062 C 31.390625 47.375 31.375 47.316406 31.390625 47.265625 C 31.410156 47.210938 31.457031 47.175781 31.511719 47.164062 Z M 31.511719 47.164062 " fill-opacity="1" fill-rule="evenodd"/><path fill="#f68c89" d="M 48.160156 26.59375 C 48.160156 26.59375 51.433594 26.242188 53.050781 23.140625 L 55.386719 24.460938 C 55.386719 24.460938 53.664062 29.886719 48.453125 30.320312 C 43.246094 30.753906 48.160156 26.59375 48.160156 26.59375 Z M 48.160156 26.59375 " fill-opacity="1" fill-rule="evenodd"/><path fill="#000000" d="M 48.226562 26.738281 C 48.03125 26.90625 47.042969 27.785156 46.519531 28.636719 C 46.292969 29.011719 46.148438 29.371094 46.238281 29.660156 C 46.300781 29.851562 46.476562 30 46.789062 30.09375 C 47.152344 30.199219 47.6875 30.234375 48.445312 30.171875 C 53.113281 29.78125 54.925781 25.304688 55.207031 24.53125 L 53.113281 23.347656 C 51.554688 26.175781 48.632812 26.679688 48.226562 26.738281 Z M 48.144531 26.445312 C 48.144531 26.445312 51.339844 26.101562 52.917969 23.074219 C 52.9375 23.035156 52.96875 23.007812 53.007812 22.996094 C 53.046875 22.984375 53.089844 22.992188 53.125 23.011719 L 55.460938 24.332031 C 55.519531 24.367188 55.550781 24.4375 55.527344 24.503906 C 55.527344 24.503906 53.769531 30.023438 48.464844 30.464844 C 47.605469 30.539062 47.011719 30.484375 46.621094 30.351562 C 46.289062 30.238281 46.09375 30.0625 45.996094 29.859375 C 45.894531 29.65625 45.886719 29.417969 45.957031 29.15625 C 46.078125 28.695312 46.4375 28.167969 46.835938 27.707031 C 47.417969 27.027344 48.0625 26.480469 48.0625 26.480469 C 48.085938 26.460938 48.113281 26.449219 48.144531 26.445312 Z M 48.144531 26.445312 " fill-opacity="1" fill-rule="evenodd"/><path fill="#ffffff" d="M 53.167969 21.980469 C 53.167969 21.980469 52.402344 22.246094 52.46875 22.84375 C 52.539062 23.441406 53.257812 24 54.117188 24.402344 C 54.976562 24.804688 56.347656 25.132812 56.183594 23.734375 C 56.183594 23.734375 57.394531 23.328125 58.226562 21.746094 C 59.054688 20.164062 56.578125 18.5 56.578125 18.5 C 56.578125 18.5 57.257812 16.863281 57.480469 16.0625 C 57.699219 15.265625 57.570312 14.855469 57.207031 14.746094 C 56.902344 14.65625 56.460938 14.566406 55.679688 16.433594 C 54.867188 18.363281 53.167969 21.980469 53.167969 21.980469 Z M 53.167969 21.980469 " fill-opacity="1" fill-rule="evenodd"/><path fill="#000000" d="M 53.21875 22.121094 C 53.21875 22.121094 52.972656 22.203125 52.792969 22.386719 C 52.6875 22.492188 52.597656 22.640625 52.621094 22.824219 C 52.644531 23.035156 52.765625 23.238281 52.941406 23.433594 C 53.234375 23.75 53.683594 24.035156 54.179688 24.265625 C 54.507812 24.421875 54.914062 24.566406 55.273438 24.59375 C 55.511719 24.613281 55.726562 24.589844 55.871094 24.460938 C 56.015625 24.332031 56.074219 24.105469 56.035156 23.75 C 56.027344 23.679688 56.066406 23.613281 56.136719 23.589844 C 56.136719 23.589844 57.292969 23.195312 58.089844 21.675781 C 58.398438 21.09375 58.203125 20.5 57.878906 20 C 57.359375 19.203125 56.496094 18.621094 56.496094 18.621094 C 56.433594 18.582031 56.410156 18.507812 56.441406 18.441406 C 56.441406 18.441406 57.113281 16.816406 57.335938 16.023438 C 57.433594 15.652344 57.460938 15.375 57.414062 15.175781 C 57.378906 15.023438 57.292969 14.925781 57.164062 14.886719 C 57.09375 14.867188 57.015625 14.84375 56.921875 14.863281 C 56.824219 14.882812 56.714844 14.953125 56.582031 15.101562 C 56.371094 15.339844 56.121094 15.761719 55.816406 16.488281 C 55.003906 18.417969 53.304688 22.042969 53.304688 22.042969 C 53.285156 22.078125 53.253906 22.109375 53.21875 22.121094 Z M 53.054688 21.863281 C 53.269531 21.410156 54.785156 18.164062 55.539062 16.375 C 55.859375 15.605469 56.128906 15.160156 56.355469 14.90625 C 56.546875 14.6875 56.714844 14.601562 56.859375 14.570312 C 57.011719 14.539062 57.136719 14.570312 57.25 14.601562 C 57.480469 14.671875 57.640625 14.835938 57.707031 15.109375 C 57.761719 15.34375 57.742188 15.667969 57.621094 16.101562 C 57.433594 16.78125 56.917969 18.066406 56.761719 18.445312 C 57.015625 18.632812 57.691406 19.160156 58.128906 19.835938 C 58.515625 20.429688 58.71875 21.128906 58.359375 21.8125 C 57.648438 23.164062 56.667969 23.6875 56.34375 23.832031 C 56.371094 24.25 56.253906 24.519531 56.070312 24.679688 C 55.882812 24.847656 55.613281 24.910156 55.308594 24.894531 C 54.902344 24.875 54.425781 24.714844 54.050781 24.535156 C 53.515625 24.285156 53.035156 23.976562 52.71875 23.636719 C 52.492188 23.390625 52.351562 23.128906 52.320312 22.859375 C 52.285156 22.570312 52.410156 22.339844 52.578125 22.175781 C 52.746094 22.007812 52.953125 21.90625 53.054688 21.863281 Z M 53.054688 21.863281 " fill-opacity="1" fill-rule="evenodd"/><g clip-path="url(#35660b7e89)"><path fill="#d65124" d="M 59.585938 24.464844 C 55.039062 20.132812 57.753906 18.15625 61.90625 22.109375 C 62.070312 22.265625 62.132812 22.5 62.058594 22.703125 C 61.960938 22.960938 61.761719 23.335938 61.355469 23.753906 C 60.921875 24.203125 60.496094 24.453125 60.207031 24.585938 C 60.007812 24.679688 59.757812 24.628906 59.585938 24.464844 Z M 59.585938 24.464844 " fill-opacity="1" fill-rule="evenodd"/><path fill="#000000" d="M 59.691406 24.359375 C 59.816406 24.476562 59.996094 24.519531 60.144531 24.453125 C 60.421875 24.324219 60.832031 24.082031 61.246094 23.652344 C 61.632812 23.25 61.824219 22.894531 61.917969 22.648438 C 61.972656 22.5 61.921875 22.332031 61.800781 22.214844 C 60.582031 21.050781 59.488281 20.410156 58.675781 20.199219 C 58.183594 20.070312 57.804688 20.097656 57.582031 20.292969 C 57.363281 20.480469 57.316406 20.8125 57.441406 21.257812 C 57.652344 22.023438 58.351562 23.085938 59.691406 24.359375 Z M 59.484375 24.574219 C 58.089844 23.246094 57.371094 22.132812 57.152344 21.339844 C 56.988281 20.746094 57.101562 20.316406 57.386719 20.066406 C 57.667969 19.828125 58.136719 19.75 58.753906 19.910156 C 59.597656 20.128906 60.738281 20.792969 62.007812 22 C 62.21875 22.203125 62.292969 22.5 62.203125 22.753906 C 62.097656 23.023438 61.890625 23.417969 61.464844 23.859375 C 61.015625 24.324219 60.570312 24.585938 60.273438 24.722656 C 60.273438 24.722656 60.269531 24.722656 60.269531 24.722656 C 60.015625 24.839844 59.699219 24.78125 59.484375 24.574219 Z M 59.484375 24.574219 " fill-opacity="1" fill-rule="evenodd"/></g><g clip-path="url(#b4f626ff25)"><path fill="#f7b02a" d="M 49.214844 9.925781 C 49.222656 9.933594 49.234375 9.941406 49.242188 9.949219 L 61.257812 21.394531 C 61.417969 21.546875 61.46875 21.78125 61.386719 21.984375 C 61.277344 22.246094 61.058594 22.628906 60.636719 23.066406 C 60.1875 23.53125 59.75 23.800781 59.457031 23.949219 C 59.253906 24.046875 59.007812 24.011719 58.84375 23.855469 C 57.019531 22.117188 48.070312 13.589844 46.855469 12.433594 C 46.84375 12.421875 46.832031 12.410156 46.820312 12.398438 C 46.765625 12.335938 46.722656 12.261719 46.699219 12.183594 L 45.695312 9.097656 C 45.675781 9.039062 45.695312 8.972656 45.738281 8.925781 C 45.785156 8.878906 45.851562 8.863281 45.914062 8.882812 L 49 9.808594 C 49.078125 9.835938 49.152344 9.875 49.214844 9.925781 Z M 49.214844 9.925781 " fill-opacity="1" fill-rule="evenodd"/><path fill="#000000" d="M 49.117188 10.039062 C 49.070312 10 49.015625 9.972656 48.957031 9.953125 L 45.871094 9.027344 C 45.859375 9.023438 45.851562 9.027344 45.84375 9.03125 C 45.839844 9.039062 45.835938 9.046875 45.839844 9.054688 L 46.839844 12.140625 C 46.859375 12.199219 46.890625 12.253906 46.933594 12.300781 C 46.941406 12.308594 46.949219 12.316406 46.957031 12.324219 C 48.171875 13.484375 57.125 22.007812 58.949219 23.746094 C 59.066406 23.859375 59.242188 23.886719 59.390625 23.816406 C 59.671875 23.675781 60.09375 23.414062 60.527344 22.964844 C 60.933594 22.546875 61.140625 22.179688 61.246094 21.929688 C 61.304688 21.78125 61.265625 21.613281 61.152344 21.503906 L 49.136719 10.0625 C 49.132812 10.050781 49.125 10.046875 49.117188 10.039062 Z M 49.308594 9.8125 C 49.324219 9.820312 49.335938 9.832031 49.347656 9.84375 L 61.363281 21.289062 C 61.5625 21.480469 61.628906 21.78125 61.527344 22.039062 C 61.527344 22.039062 61.523438 22.039062 61.523438 22.042969 C 61.410156 22.3125 61.1875 22.714844 60.746094 23.171875 C 60.28125 23.652344 59.828125 23.929688 59.523438 24.082031 C 59.261719 24.210938 58.949219 24.164062 58.738281 23.960938 C 56.914062 22.226562 47.964844 13.699219 46.75 12.542969 C 46.734375 12.527344 46.722656 12.515625 46.707031 12.5 C 46.636719 12.421875 46.585938 12.332031 46.554688 12.234375 L 45.550781 9.148438 C 45.515625 9.035156 45.546875 8.910156 45.628906 8.824219 C 45.714844 8.738281 45.839844 8.707031 45.953125 8.742188 L 49.042969 9.671875 C 49.144531 9.699219 49.230469 9.746094 49.308594 9.8125 Z M 49.308594 9.8125 " fill-opacity="1" fill-rule="evenodd"/></g><g clip-path="url(#00c1188e66)"><path fill="#ffffff" d="M 46.820312 12.398438 C 46.765625 12.335938 46.722656 12.261719 46.699219 12.183594 L 45.695312 9.097656 C 45.675781 9.039062 45.695312 8.972656 45.738281 8.925781 C 45.785156 8.878906 45.851562 8.863281 45.914062 8.882812 L 49 9.808594 C 49.078125 9.832031 49.152344 9.871094 49.214844 9.925781 C 49.210938 9.925781 49.210938 9.929688 49.210938 9.933594 C 49.050781 10.246094 48.753906 10.714844 48.21875 11.269531 C 47.675781 11.828125 47.167969 12.1875 46.820312 12.398438 Z M 46.820312 12.398438 " fill-opacity="1" fill-rule="evenodd"/><path fill="#f7b02a" d="M 46.820312 12.398438 C 46.765625 12.335938 46.722656 12.261719 46.699219 12.183594 L 45.695312 9.097656 C 45.675781 9.039062 45.695312 8.972656 45.738281 8.925781 C 45.785156 8.878906 45.851562 8.863281 45.914062 8.882812 L 49 9.808594 C 49.078125 9.832031 49.152344 9.871094 49.214844 9.925781 C 49.210938 9.925781 49.210938 9.929688 49.210938 9.933594 C 49.050781 10.246094 48.753906 10.714844 48.21875 11.269531 C 47.675781 11.828125 47.167969 12.1875 46.820312 12.398438 Z M 46.820312 12.398438 " fill-opacity="0.252" fill-rule="evenodd"/><path fill="#000000" d="M 49.015625 9.976562 C 48.996094 9.96875 48.976562 9.960938 48.957031 9.953125 L 45.871094 9.027344 C 45.859375 9.023438 45.851562 9.027344 45.84375 9.03125 C 45.839844 9.039062 45.835938 9.046875 45.839844 9.054688 L 46.839844 12.140625 C 46.847656 12.160156 46.855469 12.179688 46.863281 12.195312 C 47.195312 11.984375 47.636719 11.652344 48.109375 11.167969 C 48.570312 10.6875 48.851562 10.277344 49.015625 9.976562 Z M 46.707031 12.496094 C 46.640625 12.421875 46.585938 12.332031 46.554688 12.230469 L 45.554688 9.144531 C 45.515625 9.03125 45.546875 8.90625 45.632812 8.824219 C 45.714844 8.738281 45.839844 8.707031 45.957031 8.742188 L 49.042969 9.667969 C 49.140625 9.699219 49.230469 9.746094 49.308594 9.8125 C 49.359375 9.855469 49.378906 9.929688 49.347656 9.988281 C 49.347656 9.992188 49.34375 9.996094 49.34375 10 C 49.34375 10 49.339844 10 49.339844 10 C 49.179688 10.324219 48.875 10.800781 48.324219 11.371094 C 47.769531 11.945312 47.253906 12.308594 46.898438 12.527344 C 46.835938 12.5625 46.757812 12.550781 46.707031 12.496094 Z M 46.707031 12.496094 " fill-opacity="1" fill-rule="evenodd"/></g><g clip-path="url(#71adaf6876)"><path fill="#000000" d="M 46.089844 10.308594 L 45.695312 9.101562 C 45.675781 9.039062 45.695312 8.972656 45.738281 8.925781 C 45.785156 8.882812 45.851562 8.863281 45.914062 8.882812 L 47.128906 9.246094 C 47.03125 9.417969 46.890625 9.609375 46.699219 9.8125 C 46.488281 10.027344 46.277344 10.1875 46.089844 10.308594 Z M 46.089844 10.308594 " fill-opacity="1" fill-rule="evenodd"/></g><path fill="#ffffff" d="M 53.257812 22.105469 C 53.257812 22.105469 52.632812 21.332031 52.484375 20.375 C 52.335938 19.421875 52.417969 18.664062 52.21875 17.980469 C 52.023438 17.296875 51.851562 16.804688 52.316406 16.621094 C 52.777344 16.4375 53.558594 16.917969 53.785156 17.730469 C 54.007812 18.546875 53.953125 18.589844 54.390625 19.144531 C 54.828125 19.699219 55.167969 20.035156 55.386719 20.585938 Z M 53.257812 22.105469 " fill-opacity="1" fill-rule="evenodd"/><path fill="#000000" d="M 53.371094 22.011719 C 53.425781 22.074219 53.414062 22.167969 53.347656 22.21875 C 53.285156 22.273438 53.191406 22.261719 53.136719 22.195312 C 53.136719 22.195312 52.488281 21.390625 52.335938 20.398438 C 52.1875 19.453125 52.269531 18.699219 52.074219 18.019531 C 51.972656 17.664062 51.878906 17.359375 51.867188 17.117188 C 51.855469 16.816406 51.957031 16.601562 52.257812 16.484375 C 52.480469 16.394531 52.761719 16.425781 53.035156 16.566406 C 53.414062 16.757812 53.78125 17.160156 53.925781 17.691406 C 54.140625 18.476562 54.085938 18.519531 54.507812 19.050781 C 54.953125 19.617188 55.300781 19.964844 55.527344 20.527344 C 55.554688 20.605469 55.519531 20.691406 55.441406 20.722656 C 55.367188 20.753906 55.277344 20.714844 55.246094 20.640625 C 55.03125 20.101562 54.695312 19.777344 54.269531 19.234375 C 53.816406 18.660156 53.867188 18.617188 53.636719 17.769531 C 53.515625 17.324219 53.214844 16.992188 52.898438 16.832031 C 52.710938 16.734375 52.519531 16.699219 52.367188 16.757812 C 52.207031 16.824219 52.160156 16.945312 52.167969 17.105469 C 52.179688 17.328125 52.269531 17.609375 52.363281 17.9375 C 52.5625 18.625 52.480469 19.390625 52.632812 20.351562 C 52.773438 21.269531 53.371094 22.011719 53.371094 22.011719 Z M 53.371094 22.011719 " fill-opacity="1" fill-rule="evenodd"/><path fill="#000000" d="M 53.035156 22.050781 C 52.996094 21.976562 53.023438 21.886719 53.097656 21.847656 C 53.171875 21.808594 53.261719 21.839844 53.300781 21.910156 C 53.300781 21.910156 53.777344 22.792969 55.332031 23.261719 C 55.410156 23.285156 55.457031 23.367188 55.433594 23.445312 C 55.40625 23.523438 55.324219 23.570312 55.246094 23.546875 C 53.542969 23.035156 53.035156 22.050781 53.035156 22.050781 Z M 53.035156 22.050781 " fill-opacity="1" fill-rule="evenodd"/><path fill="#ffffff" d="M 56.949219 17.699219 C 56.988281 17.277344 57.25 16.710938 57.851562 16.960938 C 58.449219 17.214844 58.457031 17.96875 58.121094 18.453125 C 57.785156 18.9375 56.859375 18.597656 56.949219 17.699219 Z M 56.949219 17.699219 " fill-opacity="1" fill-rule="evenodd"/><path fill="#000000" d="M 57.097656 17.714844 C 57.054688 18.160156 57.300781 18.445312 57.570312 18.511719 C 57.730469 18.546875 57.898438 18.507812 57.996094 18.367188 C 58.28125 17.957031 58.300781 17.3125 57.792969 17.097656 C 57.65625 17.042969 57.542969 17.035156 57.449219 17.070312 C 57.34375 17.109375 57.265625 17.203125 57.210938 17.3125 C 57.148438 17.4375 57.109375 17.582031 57.097656 17.714844 Z M 56.796875 17.6875 C 56.832031 17.335938 57.011719 16.914062 57.347656 16.789062 C 57.496094 16.734375 57.683594 16.730469 57.910156 16.824219 C 58.597656 17.113281 58.632812 17.980469 58.246094 18.535156 C 58.113281 18.722656 57.917969 18.816406 57.707031 18.820312 C 57.253906 18.832031 56.726562 18.429688 56.796875 17.6875 Z M 56.796875 17.6875 " fill-opacity="1" fill-rule="evenodd"/><path fill="#ffffff" d="M 58.113281 18.699219 C 58.152344 18.308594 58.390625 17.792969 58.941406 18.019531 C 59.488281 18.25 59.496094 18.941406 59.1875 19.386719 C 58.878906 19.828125 58.035156 19.519531 58.113281 18.699219 Z M 58.113281 18.699219 " fill-opacity="1" fill-rule="evenodd"/><path fill="#000000" d="M 58.265625 18.710938 C 58.226562 19.109375 58.445312 19.367188 58.6875 19.425781 C 58.828125 19.460938 58.976562 19.425781 59.0625 19.300781 C 59.320312 18.933594 59.339844 18.351562 58.878906 18.15625 C 58.761719 18.109375 58.660156 18.101562 58.578125 18.132812 C 58.484375 18.167969 58.414062 18.25 58.367188 18.347656 C 58.308594 18.460938 58.277344 18.59375 58.265625 18.710938 Z M 57.964844 18.683594 C 57.996094 18.359375 58.164062 17.96875 58.472656 17.851562 C 58.617188 17.800781 58.789062 17.796875 59 17.882812 C 59.636719 18.152344 59.667969 18.953125 59.3125 19.46875 C 59.1875 19.644531 59.003906 19.730469 58.808594 19.734375 C 58.390625 19.746094 57.898438 19.371094 57.964844 18.683594 Z M 57.964844 18.683594 " fill-opacity="1" fill-rule="evenodd"/><path fill="#f68c89" d="M 45.839844 15.714844 C 45.839844 15.714844 45.832031 15.648438 45.816406 15.539062 C 45.710938 14.75 44.992188 14.1875 44.191406 14.269531 C 39.230469 14.785156 23.027344 16.460938 22.144531 16.625 C 21.097656 16.816406 20.816406 16.949219 20.851562 18.203125 C 20.886719 19.460938 23.554688 43.519531 23.6875 44.925781 C 23.816406 46.328125 23.96875 46.523438 24.613281 47.027344 C 25.257812 47.53125 26.417969 48.230469 26.980469 48.359375 C 27.453125 48.464844 44.082031 46.5625 49.34375 45.957031 C 50.21875 45.855469 50.84375 45.074219 50.746094 44.207031 C 50.144531 38.992188 48.21875 22.300781 47.617188 17.105469 C 47.519531 16.246094 46.738281 15.621094 45.867188 15.714844 C 45.847656 15.714844 45.839844 15.714844 45.839844 15.714844 Z M 45.839844 15.714844 " fill-opacity="1" fill-rule="evenodd"/><path fill="#000000" d="M 45.839844 15.863281 C 45.765625 15.863281 45.699219 15.808594 45.691406 15.734375 L 45.667969 15.554688 C 45.574219 14.847656 44.925781 14.34375 44.207031 14.417969 C 39.246094 14.933594 23.054688 16.609375 22.171875 16.769531 C 21.691406 16.859375 21.382812 16.917969 21.203125 17.113281 C 21.023438 17.308594 20.984375 17.628906 21 18.199219 C 21.035156 19.457031 23.707031 43.507812 23.835938 44.910156 C 23.910156 45.714844 23.984375 46.105469 24.171875 46.390625 C 24.296875 46.578125 24.464844 46.71875 24.707031 46.90625 C 25.335938 47.398438 26.460938 48.085938 27.007812 48.210938 C 27.019531 48.210938 27.117188 48.210938 27.226562 48.207031 C 27.546875 48.1875 28.152344 48.136719 28.96875 48.058594 C 33.632812 47.605469 45.117188 46.292969 49.328125 45.808594 C 50.121094 45.714844 50.6875 45.007812 50.59375 44.21875 C 49.992188 39.007812 48.066406 22.316406 47.46875 17.121094 C 47.378906 16.339844 46.671875 15.777344 45.882812 15.859375 C 45.855469 15.863281 45.839844 15.863281 45.839844 15.863281 Z M 45.96875 15.554688 C 46.871094 15.523438 47.660156 16.183594 47.765625 17.089844 C 48.363281 22.28125 50.292969 38.976562 50.890625 44.1875 C 51 45.136719 50.316406 45.996094 49.359375 46.105469 C 45.148438 46.589844 33.664062 47.902344 28.992188 48.355469 C 28.175781 48.433594 27.5625 48.484375 27.238281 48.503906 C 27.078125 48.511719 26.976562 48.507812 26.945312 48.503906 C 26.371094 48.375 25.179688 47.660156 24.519531 47.144531 C 24.246094 46.929688 24.058594 46.765625 23.917969 46.554688 C 23.714844 46.242188 23.617188 45.816406 23.535156 44.9375 C 23.402344 43.53125 20.730469 19.464844 20.699219 18.207031 C 20.679688 17.519531 20.765625 17.148438 20.980469 16.914062 C 21.191406 16.679688 21.546875 16.582031 22.113281 16.476562 C 23 16.3125 39.207031 14.632812 44.171875 14.121094 C 45.050781 14.027344 45.84375 14.648438 45.960938 15.515625 Z M 45.96875 15.554688 " fill-opacity="1" fill-rule="evenodd"/><path fill="#ffffff" d="M 45.839844 15.714844 C 45.839844 15.714844 24.082031 18.191406 23.535156 18.210938 C 22.984375 18.234375 21.652344 17.515625 21.757812 17.351562 C 21.863281 17.183594 44.484375 14.882812 44.484375 14.882812 Z M 45.839844 15.714844 " fill-opacity="1" fill-rule="evenodd"/><path fill="#000000" d="M 22.023438 17.449219 C 22.039062 17.464844 22.058594 17.480469 22.078125 17.492188 C 22.445312 17.742188 23.167969 18.078125 23.53125 18.0625 C 24.03125 18.042969 42.339844 15.964844 45.394531 15.617188 L 44.449219 15.039062 C 43.390625 15.144531 26.066406 16.910156 22.441406 17.386719 C 22.277344 17.410156 22.128906 17.433594 22.023438 17.449219 Z M 45.855469 15.863281 C 45.855469 15.863281 24.089844 18.339844 23.539062 18.359375 C 23.347656 18.367188 23.070312 18.296875 22.785156 18.1875 C 22.371094 18.027344 21.941406 17.785156 21.75 17.617188 C 21.667969 17.542969 21.621094 17.472656 21.609375 17.421875 C 21.59375 17.363281 21.605469 17.3125 21.628906 17.269531 C 21.640625 17.253906 21.664062 17.226562 21.714844 17.203125 C 21.765625 17.183594 22.007812 17.144531 22.398438 17.09375 C 26.140625 16.597656 44.46875 14.734375 44.46875 14.734375 C 44.5 14.730469 44.535156 14.738281 44.5625 14.753906 L 45.917969 15.589844 C 45.972656 15.621094 46 15.683594 45.984375 15.746094 C 45.972656 15.8125 45.917969 15.855469 45.855469 15.863281 Z M 45.855469 15.863281 " fill-opacity="1" fill-rule="evenodd"/><path fill="#000000" d="M 23.523438 19.058594 C 23.511719 18.976562 23.574219 18.902344 23.65625 18.894531 C 23.738281 18.886719 23.8125 18.945312 23.820312 19.027344 C 23.820312 19.027344 26.660156 44.816406 27.039062 47.507812 C 27.050781 47.589844 26.992188 47.664062 26.910156 47.675781 C 26.828125 47.6875 26.75 47.628906 26.738281 47.546875 C 26.363281 44.859375 23.523438 19.058594 23.523438 19.058594 Z M 23.523438 19.058594 " fill-opacity="1" fill-rule="evenodd"/><path fill="#000000" d="M 35.695312 22.613281 C 35.710938 22.59375 35.726562 22.574219 35.742188 22.554688 C 35.859375 22.410156 35.949219 22.25 36 22.074219 C 36.035156 21.957031 36.058594 21.832031 36.042969 21.707031 C 35.984375 21.25 35.578125 21.09375 35.285156 21.214844 C 35.089844 21.296875 34.953125 21.503906 34.996094 21.816406 C 35.015625 21.941406 35.085938 22.097656 35.164062 22.191406 C 35.277344 22.332031 35.417969 22.445312 35.566406 22.539062 C 35.609375 22.5625 35.652344 22.589844 35.695312 22.613281 Z M 35.476562 22.832031 C 35.453125 22.820312 35.429688 22.804688 35.40625 22.789062 C 35.230469 22.679688 35.0625 22.542969 34.929688 22.378906 C 34.824219 22.242188 34.722656 22.027344 34.699219 21.855469 C 34.632812 21.371094 34.863281 21.066406 35.167969 20.9375 C 35.617188 20.75 36.25 20.972656 36.339844 21.667969 C 36.359375 21.835938 36.335938 22 36.289062 22.160156 C 36.222656 22.371094 36.117188 22.566406 35.976562 22.742188 C 35.976562 22.742188 35.972656 22.746094 35.972656 22.746094 C 37.648438 23.453125 39.753906 22.550781 39.695312 20.714844 C 39.695312 20.632812 39.757812 20.5625 39.839844 20.558594 C 39.925781 20.554688 39.992188 20.621094 39.996094 20.703125 C 40.0625 22.789062 37.640625 23.84375 35.757812 22.976562 C 34.820312 23.871094 33.253906 23.953125 32.179688 23.292969 C 31.777344 23.046875 31.554688 22.820312 31.277344 22.441406 C 31.226562 22.375 31.242188 22.28125 31.308594 22.234375 C 31.375 22.183594 31.46875 22.199219 31.515625 22.265625 C 31.769531 22.605469 31.96875 22.8125 32.335938 23.039062 C 33.273438 23.613281 34.628906 23.570312 35.476562 22.832031 Z M 35.476562 22.832031 " fill-opacity="1" fill-rule="evenodd"/><path fill="#d65124" d="M 25.347656 17.347656 C 25.347656 17.347656 25.011719 14.613281 23.46875 12.929688 C 23.46875 12.929688 24.816406 13.0625 25.816406 13.441406 C 25.816406 13.441406 26.367188 12.761719 26.789062 12.136719 C 26.789062 12.136719 28.632812 13.667969 28.921875 16.9375 Z M 25.347656 17.347656 " fill-opacity="1" fill-rule="evenodd"/><path fill="#000000" d="M 25.472656 17.183594 L 28.757812 16.804688 C 28.488281 14.203125 27.214844 12.761719 26.816406 12.363281 C 26.40625 12.949219 25.933594 13.535156 25.933594 13.535156 C 25.890625 13.585938 25.824219 13.605469 25.761719 13.582031 C 25.105469 13.332031 24.296875 13.191406 23.832031 13.125 C 24.992188 14.597656 25.386719 16.625 25.472656 17.183594 Z M 25.199219 17.367188 C 25.199219 17.367188 24.871094 14.683594 23.359375 13.03125 C 23.316406 12.984375 23.308594 12.917969 23.335938 12.863281 C 23.363281 12.808594 23.421875 12.777344 23.484375 12.78125 C 23.484375 12.78125 24.761719 12.90625 25.765625 13.265625 C 25.925781 13.066406 26.332031 12.542969 26.664062 12.054688 C 26.6875 12.019531 26.726562 11.996094 26.769531 11.988281 C 26.808594 11.984375 26.851562 11.996094 26.886719 12.023438 C 26.886719 12.023438 28.777344 13.582031 29.070312 16.925781 C 29.078125 17.007812 29.019531 17.078125 28.941406 17.085938 L 25.363281 17.496094 C 25.28125 17.503906 25.207031 17.445312 25.199219 17.367188 Z M 25.199219 17.367188 " fill-opacity="1" fill-rule="evenodd"/><path fill="#ffffff" d="M 15.050781 39.207031 C 15.050781 39.207031 14.289062 39.210938 14.050781 39.832031 C 13.808594 40.453125 14.152344 40.945312 14.152344 40.945312 C 14.152344 40.945312 13.339844 42.085938 13.105469 42.890625 C 12.871094 43.695312 13.15625 44.957031 13.558594 45.371094 C 13.960938 45.789062 14.28125 45.777344 14.652344 45.683594 C 14.652344 45.683594 15.253906 46.246094 15.847656 45.933594 C 15.847656 45.933594 16.175781 46.15625 16.59375 46.144531 C 17.011719 46.136719 17.121094 46.019531 17.175781 45.777344 C 17.175781 45.777344 17.832031 45.421875 18.234375 44.992188 C 18.636719 44.5625 18.78125 44.28125 18.59375 43.566406 C 18.40625 42.851562 17.679688 41.605469 17.679688 41.605469 C 17.679688 41.605469 18.074219 41.226562 17.972656 40.605469 C 17.867188 39.992188 17.132812 39.628906 17.132812 39.628906 Z M 15.050781 39.207031 " fill-opacity="1" fill-rule="evenodd"/><g clip-path="url(#cc4e614542)"><path fill="#000000" d="M 15.035156 39.359375 C 14.9375 39.363281 14.375 39.402344 14.191406 39.886719 C 13.980469 40.429688 14.277344 40.859375 14.277344 40.859375 C 14.3125 40.914062 14.3125 40.980469 14.273438 41.03125 C 14.273438 41.03125 13.480469 42.148438 13.25 42.933594 C 13.117188 43.394531 13.164062 44.007812 13.300781 44.511719 C 13.390625 44.839844 13.519531 45.117188 13.667969 45.269531 C 13.839844 45.449219 13.996094 45.539062 14.148438 45.570312 C 14.304688 45.605469 14.453125 45.578125 14.617188 45.539062 C 14.667969 45.527344 14.71875 45.539062 14.757812 45.574219 C 14.757812 45.574219 14.890625 45.699219 15.089844 45.789062 C 15.277344 45.875 15.527344 45.933594 15.773438 45.800781 C 15.824219 45.773438 15.882812 45.777344 15.929688 45.808594 C 15.929688 45.808594 16.21875 46.007812 16.589844 45.996094 C 16.78125 45.992188 16.894531 45.972656 16.957031 45.90625 C 16.996094 45.867188 17.011719 45.808594 17.027344 45.742188 C 17.039062 45.699219 17.066406 45.664062 17.101562 45.644531 C 17.101562 45.644531 17.734375 45.304688 18.121094 44.890625 C 18.304688 44.695312 18.433594 44.535156 18.492188 44.34375 C 18.546875 44.148438 18.53125 43.925781 18.449219 43.601562 C 18.265625 42.898438 17.546875 41.675781 17.546875 41.675781 C 17.515625 41.617188 17.523438 41.542969 17.574219 41.496094 C 17.574219 41.496094 17.910156 41.164062 17.824219 40.628906 C 17.785156 40.414062 17.660156 40.238281 17.523438 40.097656 C 17.34375 39.914062 17.140625 39.800781 17.082031 39.769531 Z M 15.082031 39.0625 L 17.164062 39.480469 C 17.175781 39.484375 17.1875 39.488281 17.199219 39.492188 C 17.199219 39.492188 17.488281 39.632812 17.738281 39.890625 C 17.914062 40.070312 18.070312 40.304688 18.121094 40.582031 C 18.207031 41.09375 17.984375 41.460938 17.859375 41.621094 C 18.035156 41.925781 18.578125 42.917969 18.738281 43.527344 C 18.84375 43.921875 18.847656 44.195312 18.777344 44.425781 C 18.710938 44.660156 18.5625 44.859375 18.34375 45.09375 C 18 45.464844 17.476562 45.777344 17.304688 45.875 C 17.277344 45.972656 17.234375 46.050781 17.175781 46.113281 C 17.074219 46.21875 16.90625 46.289062 16.597656 46.296875 C 16.257812 46.304688 15.96875 46.175781 15.839844 46.101562 C 15.585938 46.207031 15.339844 46.191406 15.125 46.121094 C 14.894531 46.050781 14.707031 45.917969 14.613281 45.847656 C 14.433594 45.886719 14.261719 45.902344 14.085938 45.863281 C 13.886719 45.820312 13.679688 45.710938 13.449219 45.476562 C 13.277344 45.296875 13.117188 44.972656 13.011719 44.589844 C 12.859375 44.035156 12.8125 43.355469 12.960938 42.851562 C 13.164062 42.15625 13.785156 41.214844 13.976562 40.9375 C 13.878906 40.753906 13.707031 40.308594 13.910156 39.78125 C 14.183594 39.070312 15.050781 39.058594 15.050781 39.058594 C 15.058594 39.058594 15.070312 39.0625 15.082031 39.0625 Z M 15.082031 39.0625 " fill-opacity="1" fill-rule="evenodd"/></g><path fill="#000000" d="M 14.769531 45.589844 C 14.820312 45.652344 14.8125 45.746094 14.75 45.800781 C 14.6875 45.851562 14.589844 45.84375 14.539062 45.78125 C 14.539062 45.78125 14.332031 45.527344 14.273438 45.296875 C 14.253906 45.21875 14.304688 45.136719 14.386719 45.117188 C 14.464844 45.097656 14.546875 45.148438 14.566406 45.226562 C 14.609375 45.398438 14.769531 45.589844 14.769531 45.589844 Z M 14.769531 45.589844 " fill-opacity="1" fill-rule="evenodd"/><path fill="#000000" d="M 15.9375 45.816406 C 16.003906 45.867188 16.015625 45.960938 15.964844 46.023438 C 15.910156 46.089844 15.816406 46.101562 15.753906 46.050781 C 15.753906 46.050781 15.492188 45.851562 15.4375 45.429688 C 15.425781 45.347656 15.488281 45.273438 15.570312 45.261719 C 15.652344 45.253906 15.726562 45.3125 15.734375 45.394531 C 15.773438 45.675781 15.9375 45.816406 15.9375 45.816406 Z M 15.9375 45.816406 " fill-opacity="1" fill-rule="evenodd"/><path fill="#000000" d="M 17.324219 45.765625 C 17.332031 45.847656 17.269531 45.917969 17.1875 45.925781 C 17.105469 45.929688 17.03125 45.871094 17.027344 45.789062 C 17.027344 45.789062 16.980469 45.171875 17.179688 44.25 C 17.195312 44.167969 17.273438 44.117188 17.355469 44.132812 C 17.4375 44.152344 17.488281 44.230469 17.472656 44.3125 C 17.285156 45.183594 17.324219 45.765625 17.324219 45.765625 Z M 17.324219 45.765625 " fill-opacity="1" fill-rule="evenodd"/><path fill="#000000" d="M 17.578125 41.492188 C 17.636719 41.4375 17.734375 41.441406 17.789062 41.5 C 17.847656 41.5625 17.839844 41.65625 17.78125 41.710938 C 17.78125 41.710938 17.339844 42.121094 16.667969 42.074219 C 16.585938 42.066406 16.523438 41.996094 16.53125 41.914062 C 16.535156 41.832031 16.609375 41.769531 16.691406 41.777344 C 17.222656 41.8125 17.578125 41.492188 17.578125 41.492188 Z M 17.578125 41.492188 " fill-opacity="1" fill-rule="evenodd"/><path fill="#000000" d="M 14.019531 41.011719 C 13.980469 40.9375 14.011719 40.847656 14.085938 40.8125 C 14.160156 40.777344 14.25 40.804688 14.289062 40.878906 C 14.289062 40.878906 14.582031 41.433594 15.734375 41.675781 C 15.8125 41.691406 15.867188 41.769531 15.847656 41.851562 C 15.832031 41.933594 15.75 41.984375 15.671875 41.964844 C 14.335938 41.683594 14.019531 41.011719 14.019531 41.011719 Z M 14.019531 41.011719 " fill-opacity="1" fill-rule="evenodd"/><path fill="#f68c89" d="M 23.722656 30.480469 C 23.636719 30.3125 23.453125 30.214844 23.265625 30.242188 C 22.363281 30.386719 19.632812 31.027344 17.308594 33.695312 C 15.058594 36.273438 14.714844 39.585938 14.75 39.816406 C 14.785156 40.046875 15.324219 40.4375 16.121094 40.558594 C 16.914062 40.679688 17.386719 40.355469 17.441406 40.238281 C 17.492188 40.121094 17.777344 38.007812 19.585938 36.128906 C 21.058594 34.601562 23.109375 33.960938 23.816406 33.773438 C 23.980469 33.734375 24.105469 33.609375 24.144531 33.445312 C 24.253906 32.941406 24.386719 31.785156 23.722656 30.480469 Z M 23.722656 30.480469 " fill-opacity="1" fill-rule="evenodd"/><path fill="#000000" d="M 17.304688 40.171875 C 17.359375 40.015625 17.667969 37.902344 19.476562 36.027344 C 20.972656 34.472656 23.058594 33.820312 23.777344 33.628906 C 23.777344 33.628906 23.777344 33.628906 23.78125 33.628906 C 23.886719 33.601562 23.972656 33.519531 23.996094 33.414062 C 24.105469 32.925781 24.234375 31.808594 23.589844 30.546875 C 23.53125 30.433594 23.410156 30.371094 23.285156 30.390625 C 22.394531 30.53125 19.707031 31.167969 17.417969 33.792969 C 15.867188 35.574219 15.234375 37.707031 15.007812 38.90625 C 14.914062 39.398438 14.886719 39.726562 14.898438 39.792969 C 14.902344 39.816406 14.921875 39.84375 14.945312 39.875 C 14.984375 39.921875 15.039062 39.972656 15.105469 40.023438 C 15.332031 40.183594 15.695312 40.34375 16.140625 40.410156 C 16.578125 40.476562 16.910156 40.398438 17.113281 40.300781 C 17.207031 40.257812 17.292969 40.183594 17.304688 40.171875 Z M 23.855469 30.410156 C 24.542969 31.761719 24.402344 32.957031 24.289062 33.476562 C 24.289062 33.480469 24.289062 33.480469 24.289062 33.480469 C 24.234375 33.695312 24.066406 33.863281 23.851562 33.917969 C 23.15625 34.101562 21.140625 34.730469 19.691406 36.230469 C 17.902344 38.089844 17.625 40.183594 17.578125 40.296875 C 17.554688 40.347656 17.484375 40.429688 17.359375 40.507812 C 17.136719 40.644531 16.703125 40.796875 16.097656 40.707031 C 15.503906 40.617188 15.042969 40.378906 14.808594 40.164062 C 14.683594 40.046875 14.617188 39.929688 14.601562 39.839844 C 14.589844 39.765625 14.609375 39.398438 14.710938 38.851562 C 14.945312 37.621094 15.597656 35.425781 17.191406 33.597656 C 19.550781 30.890625 22.324219 30.242188 23.238281 30.09375 C 23.242188 30.09375 23.242188 30.09375 23.242188 30.09375 C 23.496094 30.058594 23.742188 30.1875 23.855469 30.410156 Z M 23.855469 30.410156 " fill-opacity="1" fill-rule="evenodd"/><path fill="#f7b02a" d="M 47.097656 40.546875 C 47.152344 40.542969 47.203125 40.558594 47.246094 40.589844 C 47.285156 40.621094 47.3125 40.671875 47.316406 40.722656 C 47.382812 41.296875 47.566406 42.972656 47.628906 43.546875 C 47.632812 43.601562 47.617188 43.652344 47.585938 43.691406 C 47.550781 43.734375 47.503906 43.757812 47.453125 43.765625 C 46.503906 43.867188 42.410156 44.308594 41.460938 44.410156 C 41.410156 44.417969 41.359375 44.402344 41.316406 44.367188 C 41.273438 44.335938 41.25 44.289062 41.242188 44.238281 C 41.179688 43.664062 40.996094 41.984375 40.933594 41.410156 C 40.929688 41.359375 40.941406 41.304688 40.976562 41.265625 C 41.007812 41.226562 41.054688 41.199219 41.109375 41.191406 C 42.058594 41.089844 46.152344 40.648438 47.097656 40.546875 Z M 47.097656 40.546875 " fill-opacity="1" fill-rule="evenodd"/><path fill="#000000" d="M 47.117188 40.695312 L 41.125 41.339844 C 41.113281 41.34375 41.101562 41.351562 41.09375 41.359375 C 41.085938 41.367188 41.082031 41.382812 41.082031 41.394531 L 41.394531 44.21875 C 41.394531 44.234375 41.402344 44.246094 41.410156 44.253906 C 41.421875 44.261719 41.433594 44.265625 41.445312 44.261719 L 47.4375 43.617188 C 47.449219 43.613281 47.460938 43.609375 47.46875 43.597656 C 47.476562 43.589844 47.480469 43.578125 47.476562 43.5625 L 47.167969 40.738281 C 47.167969 40.722656 47.160156 40.710938 47.152344 40.707031 C 47.140625 40.699219 47.128906 40.695312 47.117188 40.695312 Z M 47.082031 40.398438 C 47.175781 40.390625 47.265625 40.414062 47.339844 40.472656 C 47.410156 40.53125 47.457031 40.613281 47.46875 40.707031 L 47.777344 43.53125 C 47.785156 43.621094 47.761719 43.714844 47.703125 43.785156 C 47.644531 43.855469 47.5625 43.902344 47.46875 43.914062 L 41.480469 44.558594 C 41.386719 44.570312 41.296875 44.542969 41.222656 44.484375 C 41.152344 44.429688 41.105469 44.34375 41.09375 44.253906 L 40.785156 41.429688 C 40.777344 41.335938 40.800781 41.246094 40.859375 41.175781 C 40.917969 41.101562 41.003906 41.058594 41.09375 41.046875 Z M 47.082031 40.398438 " fill-opacity="1" fill-rule="evenodd"/><path fill="#000000" d="M 42.355469 43.300781 C 42.273438 43.308594 42.199219 43.25 42.191406 43.167969 C 42.179688 43.085938 42.242188 43.011719 42.324219 43.003906 L 46.355469 42.566406 C 46.4375 42.554688 46.511719 42.613281 46.519531 42.695312 C 46.53125 42.777344 46.46875 42.851562 46.386719 42.863281 Z M 42.355469 43.300781 " fill-opacity="1" fill-rule="evenodd"/><path fill="#000000" d="M 42.269531 42.378906 C 42.1875 42.390625 42.113281 42.328125 42.101562 42.246094 C 42.09375 42.167969 42.152344 42.09375 42.234375 42.082031 L 46.265625 41.644531 C 46.347656 41.636719 46.421875 41.695312 46.433594 41.777344 C 46.441406 41.859375 46.382812 41.933594 46.300781 41.941406 Z M 42.269531 42.378906 " fill-opacity="1" fill-rule="evenodd"/><path fill="#ffffff" d="M 32.957031 24.609375 C 34.429688 24.460938 35.777344 25.761719 35.953125 27.515625 C 36.132812 29.265625 35.082031 30.8125 33.601562 30.960938 C 32.128906 31.109375 30.785156 29.804688 30.605469 28.054688 C 30.425781 26.300781 31.476562 24.757812 32.957031 24.609375 Z M 32.957031 24.609375 " fill-opacity="1" fill-rule="evenodd"/><path fill="#000000" d="M 32.972656 24.757812 C 31.570312 24.898438 30.585938 26.375 30.753906 28.039062 C 30.921875 29.703125 32.1875 30.953125 33.589844 30.808594 C 34.988281 30.667969 35.972656 29.191406 35.804688 27.527344 C 35.636719 25.867188 34.371094 24.617188 32.972656 24.757812 Z M 32.941406 24.460938 C 34.492188 24.304688 35.914062 25.660156 36.105469 27.5 C 36.292969 29.339844 35.171875 30.953125 33.617188 31.105469 C 32.070312 31.261719 30.644531 29.910156 30.453125 28.066406 C 30.265625 26.226562 31.390625 24.617188 32.941406 24.460938 Z M 32.941406 24.460938 " fill-opacity="1" fill-rule="evenodd"/><path fill="#ffffff" d="M 39.414062 23.957031 C 40.890625 23.808594 42.234375 25.113281 42.414062 26.863281 C 42.59375 28.617188 41.539062 30.160156 40.0625 30.308594 C 38.585938 30.457031 37.242188 29.15625 37.0625 27.402344 C 36.886719 25.652344 37.9375 24.109375 39.414062 23.957031 Z M 39.414062 23.957031 " fill-opacity="1" fill-rule="evenodd"/><path fill="#000000" d="M 39.429688 24.109375 C 38.027344 24.25 37.042969 25.722656 37.214844 27.386719 C 37.382812 29.050781 38.644531 30.300781 40.046875 30.160156 C 41.449219 30.019531 42.433594 28.542969 42.265625 26.878906 C 42.09375 25.214844 40.832031 23.964844 39.429688 24.109375 Z M 39.398438 23.808594 C 40.953125 23.65625 42.375 25.007812 42.5625 26.847656 C 42.753906 28.691406 41.628906 30.300781 40.078125 30.457031 C 38.527344 30.613281 37.101562 29.257812 36.914062 27.417969 C 36.726562 25.578125 37.847656 23.964844 39.398438 23.808594 Z M 39.398438 23.808594 " fill-opacity="1" fill-rule="evenodd"/><path fill="#000000" d="M 33.628906 26.8125 C 33.660156 26.941406 33.683594 27.078125 33.699219 27.214844 C 33.820312 28.414062 33.257812 29.453125 32.441406 29.535156 C 31.628906 29.617188 30.867188 28.710938 30.746094 27.511719 C 30.625 26.316406 31.1875 25.277344 32 25.195312 C 32.53125 25.140625 33.039062 25.507812 33.363281 26.101562 C 32.84375 26.175781 32.457031 26.371094 32.476562 26.558594 C 32.496094 26.757812 32.988281 26.875 33.570312 26.816406 C 33.589844 26.816406 33.609375 26.8125 33.628906 26.8125 Z M 33.628906 26.8125 " fill-opacity="1" fill-rule="evenodd"/><path fill="#000000" d="M 40.089844 26.160156 C 40.121094 26.292969 40.140625 26.425781 40.15625 26.566406 C 40.277344 27.765625 39.714844 28.800781 38.902344 28.882812 C 38.085938 28.964844 37.324219 28.0625 37.203125 26.863281 C 37.082031 25.667969 37.644531 24.628906 38.460938 24.546875 C 38.992188 24.492188 39.5 24.859375 39.820312 25.449219 C 39.304688 25.527344 38.914062 25.722656 38.933594 25.90625 C 38.953125 26.109375 39.445312 26.226562 40.03125 26.167969 C 40.050781 26.167969 40.070312 26.164062 40.089844 26.160156 Z M 40.089844 26.160156 " fill-opacity="1" fill-rule="evenodd"/><path fill="#000000" d="M 35.25 34.015625 C 34.949219 33.148438 34.824219 32.394531 34.824219 32.394531 C 34.824219 32.394531 37.421875 32.980469 39.320312 31.839844 C 39.320312 31.839844 39.398438 33.597656 39.007812 34.964844 C 38.773438 35.792969 38.363281 36.480469 37.660156 36.542969 C 36.429688 36.652344 35.667969 35.226562 35.25 34.015625 Z M 35.25 34.015625 " fill-opacity="1" fill-rule="evenodd"/><path fill="#000000" d="M 35.394531 33.96875 C 35.597656 34.554688 35.882812 35.199219 36.269531 35.683594 C 36.632812 36.136719 37.082031 36.445312 37.648438 36.394531 C 37.957031 36.367188 38.199219 36.199219 38.390625 35.953125 C 38.597656 35.679688 38.75 35.320312 38.863281 34.921875 C 39.160156 33.886719 39.183594 32.617188 39.175781 32.09375 C 37.605469 32.914062 35.660156 32.6875 35.011719 32.582031 C 35.070312 32.859375 35.191406 33.386719 35.394531 33.96875 Z M 35.109375 34.0625 C 34.804688 33.183594 34.675781 32.417969 34.675781 32.417969 C 34.667969 32.367188 34.683594 32.316406 34.722656 32.285156 C 34.757812 32.25 34.808594 32.238281 34.859375 32.246094 C 34.859375 32.246094 37.394531 32.824219 39.242188 31.710938 C 39.289062 31.6875 39.347656 31.683594 39.390625 31.710938 C 39.4375 31.734375 39.46875 31.78125 39.46875 31.835938 C 39.46875 31.835938 39.546875 33.617188 39.152344 35.003906 C 39.027344 35.4375 38.859375 35.835938 38.628906 36.132812 C 38.382812 36.449219 38.070312 36.65625 37.675781 36.691406 C 37.136719 36.742188 36.679688 36.523438 36.296875 36.15625 C 35.757812 35.636719 35.367188 34.8125 35.109375 34.0625 Z M 35.109375 34.0625 " fill-opacity="1" fill-rule="evenodd"/><path fill="#d65124" d="M 39.007812 34.964844 C 38.769531 35.792969 38.363281 36.480469 37.660156 36.542969 C 36.429688 36.652344 35.667969 35.226562 35.25 34.015625 C 36.117188 33.929688 37.761719 33.941406 39.007812 34.964844 Z M 39.007812 34.964844 " fill-opacity="1" fill-rule="evenodd"/><path fill="#000000" d="M 38.835938 35.015625 C 37.722656 34.152344 36.3125 34.089844 35.457031 34.148438 C 35.65625 34.683594 35.921875 35.246094 36.269531 35.679688 C 36.632812 36.132812 37.082031 36.445312 37.648438 36.394531 C 37.957031 36.367188 38.199219 36.199219 38.390625 35.949219 C 38.582031 35.703125 38.726562 35.375 38.835938 35.015625 Z M 39.152344 35.003906 C 39.027344 35.4375 38.859375 35.835938 38.628906 36.132812 C 38.382812 36.449219 38.070312 36.65625 37.675781 36.691406 C 37.136719 36.742188 36.679688 36.523438 36.296875 36.15625 C 35.757812 35.636719 35.367188 34.8125 35.109375 34.0625 C 35.09375 34.019531 35.097656 33.972656 35.125 33.933594 C 35.148438 33.898438 35.191406 33.871094 35.234375 33.867188 C 36.125 33.78125 37.820312 33.796875 39.105469 34.851562 C 39.148438 34.886719 39.167969 34.945312 39.152344 35.003906 Z M 39.152344 35.003906 " fill-opacity="1" fill-rule="evenodd"/></svg>