<?xml version="1.0" encoding="utf-8"?>
<!-- Generator: Adobe Illustrator 27.5.0, SVG Export Plug-In . SVG Version: 6.00 Build 0)  -->
<svg version="1.1" xmlns="http://www.w3.org/2000/svg" xmlns:xlink="http://www.w3.org/1999/xlink" x="0px" y="0px"
	 viewBox="0 0 500 500" style="enable-background:new 0 0 500 500;" xml:space="preserve">
<g id="BACKGROUND">
	<rect style="fill:#F9F4F4;" width="500" height="500"/>
	<g>
		<path style="fill:#FCFCFC;" d="M373.422,367.687c-12.942,13.815-31.026,21.76-49.323,26.585
			c-88.538,24.785-188.558-24.491-222.842-109.804c-17.53-41.772-19.024-91.373,1.876-131.573
			c20.9-40.188,65.9-68.385,110.966-63.745c15.282,1.586,29.995,6.636,44.193,12.532c19.671,8.157,39.923,19.235,49.283,38.363
			c4.363,8.884,5.988,18.838,9.677,28.026c2.173,5.305,4.975,10.329,8.421,14.925c9.089,8.412,20.947,14.637,30.59,22.328
			C399.539,239.687,411.271,325.741,373.422,367.687z"/>
	</g>
</g>
<g id="OBJECTS">
	<path style="fill:#F4EAE1;" d="M161.494,430.193c-16.746,3.729-15.101,11.986,1.167,17.426c12.291,4.169,24.012,8.786,36.913,11.67
		c41.149,7.745,86.048,4.219,125.779-5.485c7.582-1.92,15.313-4.269,20.38-8.487c5.067-4.218,6.558-10.802,1.31-14.921
		c-3.388-2.659-8.719-3.77-13.788-4.645C277.467,416.114,215.676,416.812,161.494,430.193z"/>
	<g>
		<path style="fill:#EAA7A2;" d="M254.462,388.462c8.876-0.301,17.739-0.791,26.596-1.422c6.084-0.434,12.186-0.773,18.211-1.667
			c9.242-1.37,18.502-2.71,27.598-4.92c2.118-0.515,4.41-0.738,6.137-2.23c6.803-5.876,9.315-13.273,7.515-22.073
			c-1.337-6.536-5.512-11.369-10.396-15.386c-6.377-5.246-13.834-8.769-21.767-11.054c-9.893-2.849-19.983-4.643-30.287-5.366
			c-7.314-0.513-14.616-1.298-21.949-1.419c-8.522-0.141-17.036,0.03-25.545,0.795c-4.539,0.408-9.105,0.686-13.64,1.131
			c-7.479,0.733-14.883,2.124-22.093,4.253c-11.518,3.402-22.187,8.124-30.038,17.955c-5.335,6.68-6.599,17.946-1.865,25.326
			c2.099,3.272,4.32,6.42,8.435,7.385c3.329,0.781,6.639,1.685,10.005,2.261c8.209,1.404,16.392,2.976,24.693,3.811
			c6.07,0.61,12.143,1.153,18.234,1.478c3.998,0.213,7.998,0.4,11.993,0.664C242.349,388.383,248.405,388.507,254.462,388.462z"/>
		<path style="fill:#EAA7A2;" d="M266.332,447.441c4.316-0.01,7.237-0.008,10.165-0.24c5.617-0.445,11.265-0.347,16.861-1.241
			c6.913-1.104,13.725-2.395,20.372-4.786c8.779-3.158,15.698-8.463,21.05-16.001c4.52-6.366,3.496-15.534-2.358-20.656
			c-1.552-1.358-3.121-2.375-5.123-0.758c-0.346,0.279-0.826,0.403-1.258,0.562c-5.884,2.177-11.994,3.279-18.2,4.088
			c-7.434,0.969-14.889,1.489-22.37,1.813c-4.717,0.205-9.428,0.573-14.145,0.784c-5.485,0.245-10.979,0.4-16.462,0.553
			c-3.804,0.107-7.665,0.07-11.507-0.127c-9.127-0.467-18.265-0.682-27.396-1.16c-9.323-0.488-18.625-1.074-27.844-2.571
			c-5.251-0.853-10.477-1.918-15.269-4.359c-1.14-0.581-1.943-0.503-2.948,0.144c-6.065,3.904-8.568,13.191-4.894,19.686
			c3.249,5.744,7.776,10.495,13.485,13.87c5.479,3.239,11.418,5.474,17.655,6.846c6.851,1.508,13.748,2.69,20.777,2.952
			c2.822,0.105,5.641,0.29,8.463,0.375c7.85,0.238,15.701,0.569,23.553,0.621C255.2,447.88,261.461,447.564,266.332,447.441z"/>
		<path style="fill:#BFD8C3;" d="M250.502,406.749c0-0.084,0-0.169,0.001-0.253c2.259,0,4.518,0.005,6.777-0.001
			c12.434-0.031,24.836-0.781,37.239-1.565c7.467-0.472,14.89-1.254,22.207-2.836c3.846-0.832,7.626-1.865,11.048-3.965
			c4.663-2.862,4.952-8.288,2.352-12.18c-0.572-0.857-1.202-1.163-2.33-0.854c-2.46,0.673-4.966,1.215-7.481,1.642
			c-8.115,1.379-16.204,2.905-24.401,3.787c-5.557,0.598-11.124,1.068-16.697,1.435c-4.403,0.29-8.81,0.552-13.223,0.72
			c-7.837,0.3-15.65,0.756-23.515,0.344c-7.993-0.419-15.989-0.77-23.977-1.314c-5.933-0.404-11.882-0.768-17.752-1.663
			c-9.341-1.423-18.721-2.694-27.898-5.043c-0.688-0.176-1.151-0.005-1.636,0.494c-2.304,2.373-2.634,7.495-0.674,10.147
			c1.8,2.435,4.382,3.656,7.105,4.604c8.685,3.022,17.773,3.827,26.838,4.592c7.105,0.6,14.236,0.949,21.362,1.233
			C234.063,406.4,242.284,406.532,250.502,406.749z"/>
		<g>
			<path style="fill:#D68583;" d="M256.186,375.029c-0.514,0-1.028-0.009-1.541,0.002c-0.735,0.016-1.212-0.29-1.206-1.062
				c0.006-0.746,0.473-1.127,1.189-1.128c1.388-0.001,2.765-0.174,4.145-0.245c5.587-0.289,11.183-0.4,16.768-0.718
				c5.575-0.317,11.154-0.588,16.718-1.127c6.002-0.582,11.994-1.214,17.932-2.256c6.216-1.091,12.442-2.184,18.23-4.885
				c0.975-0.455,1.913-0.966,2.782-1.611c0.545-0.404,1.172-0.491,1.635,0.134c0.467,0.63,0.179,1.174-0.36,1.597
				c-2.119,1.664-4.582,2.683-7.101,3.492c-6.224,1.999-12.634,3.164-19.096,4.107c-6.175,0.901-12.376,1.526-18.588,2.058
				c-3.473,0.298-6.958,0.475-10.442,0.632c-5.743,0.259-11.488,0.462-17.233,0.676
				C258.737,374.743,257.481,375.119,256.186,375.029z"/>
			<path style="fill:#D68583;" d="M244.673,374.987c-7.634-0.402-15.264-0.914-22.903-1.161c-4.157-0.134-8.301-0.431-12.435-0.773
				c-4.883-0.405-9.754-1.007-14.61-1.72c-6.407-0.94-12.762-2.086-18.94-4.057c-2.535-0.808-4.988-1.828-7.17-3.404
				c-0.623-0.45-0.95-1.005-0.512-1.696c0.408-0.642,0.992-0.574,1.601-0.174c4.936,3.243,10.598,4.369,16.235,5.596
				c6.794,1.478,13.695,2.237,20.586,3.013c4.73,0.533,9.502,0.707,14.259,0.976c7.684,0.435,15.371,0.819,23.057,1.216
				c0.769,0.04,1.542,0.023,2.312,0.025c0.846,0.002,1.447,0.352,1.383,1.257c-0.061,0.87-0.74,0.988-1.477,0.94
				c-0.461-0.03-0.925-0.006-1.387-0.006C244.673,375.008,244.673,374.998,244.673,374.987z"/>
			<path style="fill:#D68583;" d="M240.136,423.138c-6.368-0.025-12.691-0.751-19.034-1.157c-6.547-0.419-13.014-1.387-19.491-2.288
				c-7.918-1.101-15.89-1.984-23.587-4.298c-2.767-0.832-5.285-2.197-7.489-4.084c-0.615-0.527-1.402-1.178-0.568-2.042
				c0.82-0.849,1.444-0.073,2.082,0.46c3.152,2.632,6.908,3.934,10.849,4.717c6.502,1.293,13.048,2.333,19.632,3.135
				c5.324,0.648,10.627,1.474,15.959,2.046c4.379,0.47,8.784,0.705,13.18,1.002c4.463,0.302,8.933,0.386,13.406,0.315
				c0.837-0.013,1.637,0.115,1.65,1.153c0.015,1.126-0.845,1.061-1.655,1.049C243.427,423.12,241.781,423.138,240.136,423.138z"/>
			<path style="fill:#D68583;" d="M260.795,423.146c-1.696,0.002-3.392-0.017-5.087,0.011c-0.798,0.013-1.545-0.097-1.526-1.058
				c0.018-0.876,0.693-1.165,1.516-1.156c4.418,0.051,8.836,0.023,13.245-0.312c4.747-0.36,9.49-0.784,14.238-1.129
				c6.118-0.445,12.168-1.444,18.23-2.305c7.101-1.009,14.258-1.82,21.144-3.98c2.453-0.769,4.679-2.027,6.636-3.706
				c0.613-0.526,1.219-0.95,1.834-0.209c0.567,0.683,0.195,1.369-0.404,1.88c-2.042,1.74-4.366,2.999-6.872,3.933
				c-3.893,1.451-7.979,2.088-12.049,2.73c-6.95,1.098-13.914,2.117-20.887,3.063c-4.866,0.66-9.772,0.958-14.667,1.358
				C271.032,422.682,265.924,423.051,260.795,423.146z"/>
		</g>
		<g>
			<path style="fill:#8C4C0F;" d="M167.028,399.579c-2.88-4.703-3.704-10.123-0.442-16.103c-6.65-5.402-11.079-12.069-11.443-20.847
				c-0.294-7.108,1.865-13.4,6.388-19.059c8.405-10.516,19.966-15.526,32.352-19.143c7.17-2.094,14.532-3.391,21.95-4.277
				c3.765-0.45,7.553-0.718,11.336-0.991c6.187-0.447,12.374-0.954,18.571-1.205c5.434-0.22,10.876,0.044,16.305,0.424
				c4.911,0.343,9.82,0.703,14.73,1.063c13.263,0.97,26.338,2.995,38.818,7.757c5.889,2.247,11.641,5.022,16.543,9.023
				c6.191,5.053,11.483,10.961,13.09,19.166c1.811,9.247-0.341,17.496-6.926,24.399c-1.226,1.285-2.303,2.76-4.037,3.623
				c3.144,5.427,2.921,10.759-0.332,16.128c1.459,1.312,2.933,2.644,4.178,4.193c5.329,6.626,5.897,17.433-0.147,25.244
				c-6.19,8.001-13.845,13.622-23.392,16.971c-5.879,2.062-11.878,3.37-17.986,4.339c-10.987,1.743-22.07,1.774-33.154,1.91
				c-4.975,0.061-9.945,0.763-14.924,0.519c-7.39-0.363-14.782-0.449-22.175-0.637c-11.944-0.303-23.874-1.161-35.391-4.609
				c-9.158-2.742-17.787-6.604-24.242-14.104c-2.948-3.426-6.158-6.752-7.275-11.266c-2.109-8.526-0.129-15.921,6.728-21.74
				C166.426,400.129,166.686,399.885,167.028,399.579z M254.462,388.462c8.876-0.301,17.739-0.791,26.596-1.422
				c6.084-0.434,12.186-0.773,18.211-1.667c9.242-1.37,18.502-2.71,27.598-4.92c2.118-0.515,4.41-0.738,6.137-2.23
				c6.803-5.876,9.315-13.273,7.515-22.073c-1.337-6.536-5.512-11.369-10.396-15.386c-6.377-5.246-13.834-8.769-21.767-11.054
				c-9.893-2.849-19.983-4.643-30.287-5.366c-7.314-0.513-14.616-1.298-21.949-1.419c-8.522-0.141-17.036,0.03-25.545,0.795
				c-4.539,0.408-9.105,0.686-13.64,1.131c-7.479,0.733-14.883,2.124-22.093,4.253c-11.518,3.402-22.187,8.124-30.038,17.955
				c-5.335,6.68-6.599,17.946-1.865,25.326c2.099,3.272,4.32,6.42,8.435,7.385c3.329,0.781,6.639,1.685,10.005,2.261
				c8.209,1.404,16.392,2.976,24.693,3.811c6.07,0.61,12.143,1.153,18.234,1.478c3.998,0.213,7.998,0.4,11.993,0.664
				C242.349,388.383,248.405,388.507,254.462,388.462z M266.332,447.441c4.316-0.01,7.237-0.008,10.165-0.24
				c5.617-0.445,11.265-0.347,16.861-1.241c6.913-1.104,13.725-2.395,20.372-4.786c8.779-3.158,15.698-8.463,21.05-16.001
				c4.52-6.366,3.496-15.534-2.358-20.656c-1.552-1.358-3.121-2.375-5.123-0.758c-0.346,0.279-0.826,0.403-1.258,0.562
				c-5.884,2.177-11.994,3.279-18.2,4.088c-7.434,0.969-14.889,1.489-22.37,1.813c-4.717,0.205-9.428,0.573-14.145,0.784
				c-5.485,0.245-10.979,0.4-16.462,0.553c-3.804,0.107-7.665,0.07-11.507-0.127c-9.127-0.467-18.265-0.682-27.396-1.16
				c-9.323-0.488-18.625-1.074-27.844-2.571c-5.251-0.853-10.477-1.918-15.269-4.359c-1.14-0.581-1.943-0.503-2.948,0.144
				c-6.065,3.904-8.568,13.191-4.894,19.686c3.249,5.744,7.776,10.495,13.485,13.87c5.479,3.239,11.418,5.474,17.655,6.846
				c6.851,1.508,13.748,2.69,20.777,2.952c2.822,0.105,5.641,0.29,8.463,0.375c7.85,0.238,15.701,0.569,23.553,0.621
				C255.2,447.88,261.461,447.564,266.332,447.441z M250.502,406.749c0-0.084,0-0.169,0.001-0.253c2.259,0,4.518,0.005,6.777-0.001
				c12.434-0.031,24.836-0.781,37.239-1.565c7.467-0.472,14.89-1.254,22.207-2.836c3.846-0.832,7.626-1.865,11.048-3.965
				c4.663-2.862,4.952-8.288,2.352-12.18c-0.572-0.857-1.202-1.163-2.33-0.854c-2.46,0.673-4.966,1.215-7.481,1.642
				c-8.115,1.379-16.204,2.905-24.401,3.787c-5.557,0.598-11.124,1.068-16.697,1.435c-4.403,0.29-8.81,0.552-13.223,0.72
				c-7.837,0.3-15.65,0.756-23.515,0.344c-7.993-0.419-15.989-0.77-23.977-1.314c-5.933-0.404-11.882-0.768-17.752-1.663
				c-9.341-1.423-18.721-2.694-27.898-5.043c-0.688-0.176-1.151-0.005-1.636,0.494c-2.304,2.373-2.634,7.495-0.674,10.147
				c1.8,2.435,4.382,3.656,7.105,4.604c8.685,3.022,17.773,3.827,26.838,4.592c7.105,0.6,14.236,0.949,21.362,1.233
				C234.063,406.4,242.284,406.532,250.502,406.749z"/>
		</g>
		<g>
			<path style="fill:#B55353;" d="M202.882,135.704c1.075-5.718,3.015-10.986,7.668-14.816c4.275-3.518,9.12-4.888,14.619-3.62
				c3.419,0.789,6.001,2.985,8.721,4.978c3.439,2.52,6.922,3.975,11.185,1.511c2.642-1.528,5.788-2.088,8.786-1.258
				c5.688,1.574,9.799,5.226,12.271,10.343c0.003,0.033-0.002,0.064,0.002,0.098c0.064,0.505,0.27,0.924,0.593,1.245
				c2.46,6.057,1.3,12.189-1.01,18.086c-3.602,9.198-11.808,13.456-21.657,12.542c-3.15-0.293-6.019-1.589-9.047-2.308
				c-0.601-0.143-1.128-0.167-1.584-0.09c-4.943-4.835-10.347-9.093-16.487-12.332c-4.054-2.143-8.412-3.533-12.959-3.934
				C202.807,142.763,202.201,139.327,202.882,135.704z"/>
			<path style="fill:#8C4C0F;" d="M171.856,269.022l-2.898-9.466c0,0-10.624-3.284-25.885,7.92
				c-15.261,11.204-26.658,21.442-26.658,21.442l3.67,9.079l24.533-10.431L171.856,269.022z"/>
			<g>
				<path style="fill:#F9F7F4;" d="M324.663,225.599c-2.463-2.251-2.296-3.723,0.637-5.408c1.859-1.067,3.518-3.582,2.714-6.418
					c-0.212-0.759-0.604-1.543-1.222-2.334c-1.698-2.173-3.929-3.762-5.967-5.549c-3.286-2.874-6.006-6.147-7.916-10.096
					c-0.997-2.058-2.006-4.128-3.112-6.128c-1.569-2.836-3.331-5.549-5.556-7.948c-4.057-4.379-8.674-8.147-13.96-10.989
					c0,0-0.013-0.006-0.032-0.013c-0.367-0.199-0.752-0.36-1.151-0.495c-0.064-0.026-0.129-0.051-0.199-0.077
					c-0.727-0.251-1.485-0.456-2.212-0.707c-0.341-0.122-0.643-0.289-0.9-0.495c-0.733-0.579-1.074-1.453-0.862-2.347
					c0.289-1.202,1.415-1.884,2.771-1.717v-0.868c0.257-3.421,0.302-7.273,1.871-10.867c0.437-1.003,0.926-1.987,1.749-2.707
					c-1.743-3.775-3.948-7.286-7.08-10.218c-3.453-3.241-7.569-5.061-12.25-5.543c0.264,0.997,0.463,2.032,0.579,3.112
					c0.746,7.028-0.714,13.671-4.18,19.805c-1.286,2.283-2.81,4.212-4.546,5.819c-3.646,3.37-8.237,5.318-13.639,6.064
					c-4.533,0.624-8.867,0.013-13.157-1.408c-0.482-0.161-0.971-0.302-1.46-0.437c-0.084,0.109-0.18,0.206-0.289,0.302
					c-0.932,0.797-2.283,0.81-3.189-0.206c-3.273-3.672-7.208-6.578-11.079-9.523c-5.376-4.083-11.401-6.797-18.262-7.305
					c-5.954-0.444-10.353,2.264-13.78,6.861c-3.903,5.241-5.755,11.189-6.199,17.683c-0.457,6.623-0.225,13.247-0.257,19.87
					c-0.026,6.122-2.251,11.067-7.472,14.488c-1.08,0.714-1.948,1.665-2.913,2.514c-2.784,2.443-2.321,5.858-0.514,8.301
					c2.836,3.826,2.894,3.833,0.244,7.761c-2.707,4-1.164,7.44,2.617,10.436c1.196,0.952,2.662,1.543,3.64,2.81
					c0.752,0.977,0.842,1.955,0.193,2.99c-2.302,3.684-1.627,6.816,1.768,9.639c5.511,4.585,11.768,7.376,18.725,9.054
					c6.675,1.614,13.33,3.189,20.166,3.762c3.369,0.283,6.777,0.187,10.166-0.051c1.948-0.135,3.903-0.161,5.852-0.154
					c1.543,0.006,2.54,0.99,2.514,2.328c-0.032,1.337-1.009,2.309-2.553,2.328c-3.646,0.045-7.286,0.611-10.925,0.302
					c-2.63-0.219-4.726,0.521-6.72,2.219c-8.212,6.977-14.738,15.073-17.664,25.676c-2.643,9.575-2.244,18.77,2.874,27.58
					c3.408,5.864,8.257,10.134,13.89,13.664c5.877,3.685,11.922,6.983,18.905,8.083c0.915,0.145,1.83,0.286,2.745,0.42
					c0.554-1.553,1.243-3.054,2.1-4.473c2.905-4.81,7.924-8.559,13.522-8.947c-1.58-2.488-3.124-5.001-4.838-7.397
					c-3.524-4.926-7.118-9.781-11.549-13.973c-3.89-3.685-8.224-6.443-13.632-7.157c-2.649-0.347-5.041,0.521-7.253,1.916
					c-1.511,0.952-2.855,0.887-3.665-0.276c-0.842-1.196-0.495-2.784,0.997-3.691c3.942-2.398,8.083-3.395,12.764-2.302
					c7.678,1.788,13.169,6.662,18.159,12.295c5.615,6.332,10.131,13.457,14.7,20.553c0.279-0.025,0.556-0.057,0.833-0.104
					c3.118-0.523,5.745-2.525,8.423-4.206c4.061-2.55,8.525-4.412,13.169-5.583c-1.139-0.887-2.181-1.882-2.961-3.162
					c-3.177-5.228-5.466-10.874-7.459-16.635c-0.605-1.736,0.103-3.099,1.498-3.505c1.37-0.399,2.527,0.444,3.099,2.251
					c1.44,4.495,3.556,8.7,5.479,12.989c1.293,2.868,3.614,4.643,6.122,6.295c0.289,0.191,0.575,0.384,0.857,0.582
					c6.651-0.717,13.452-0.072,19.808,1.981c-0.3-0.725-0.244-1.5-0.062-2.325c0.817-3.607,1.241-7.253,1.447-10.944
					c0.238-4.212,0.347-8.411-0.026-12.616c-1.241-14.044-3.955-27.586-13.06-38.993c-0.193-0.238-0.354-0.502-0.527-0.759
					c-1.923-2.804-1.325-4.077,2-4.9c3.337-0.829,6.379-2.463,9.427-4.025c5.819-2.996,11.356-6.405,15.786-11.324
					c2.559-2.842,4.205-6.051,3.948-10.006C327.036,228.898,326.251,227.053,324.663,225.599z"/>
				<path style="fill:#EAC4D1;" d="M288.429,324.931c2.303,1.612,4.285,3.492,4.95,6.466c0.566,2.521,0.032,4.881-0.984,7.343
					c3.466,1.235,6.913,1.305,10.301-0.058c1.897-0.759,3.742-1.768,5.17-3.267c2.296-2.405,3.157-4.926,0.81-7.781
					c-0.194-0.235-0.337-0.477-0.44-0.723C301.882,324.86,295.08,324.214,288.429,324.931z"/>
				<path style="fill:#EAC4D1;" d="M240.165,344.989c-0.857,1.419-1.546,2.92-2.1,4.473c5.273,0.772,10.556,1.247,15.871,0.036
					c2.038-0.463,3.852-1.415,5.324-2.919c0.604-0.611,1.228-1.26,0.386-2.225c-2.253-2.587-4.13-5.432-5.959-8.312
					C248.089,336.43,243.07,340.18,240.165,344.989z"/>
				<path style="fill:#EAC4D1;" d="M260.203,335.905c-0.277,0.047-0.555,0.079-0.833,0.104c0.015,0.023,0.03,0.046,0.045,0.069
					c2.27,3.537,4.829,6.887,8.475,9.234c2.913,1.871,5.993,2.219,9.105,0.958c4.463-1.82,8.173-4.688,10.681-8.912
					c2.071-3.492,1.53-5.974-1.749-8.353c-1.357-0.981-2.811-1.861-4.132-2.889c-4.644,1.17-9.107,3.033-13.169,5.583
					C265.948,333.38,263.321,335.382,260.203,335.905z"/>
			</g>
			<path style="fill:#F9F7F4;" d="M289.097,170.221c0.399,0.135,0.784,0.296,1.151,0.495
				C290.132,170.665,289.74,170.492,289.097,170.221z"/>
			<path style="fill:#EAC4D1;" d="M289.566,153.143c-1.569,3.594-1.614,7.446-1.871,10.867v0.868
				c-1.357-0.167-2.482,0.514-2.771,1.717c-0.212,0.894,0.129,1.768,0.862,2.347c-4.656-1.691-12.552-4.173-21.947-5.53
				c1.736-1.608,3.26-3.537,4.546-5.819c3.466-6.135,4.926-12.777,4.18-19.805c-0.116-1.08-0.315-2.116-0.579-3.112
				c4.681,0.482,8.797,2.302,12.25,5.543c3.132,2.932,5.337,6.443,7.08,10.218C290.492,151.156,290.004,152.139,289.566,153.143z"/>
			<path style="fill:#EAC4D1;" d="M121.806,290.115c-0.971,0.064-1.916,0.328-2.804,0.765c-0.778-2.309-1.402-4.72-1.891-7.221
				c-1.479-7.562-1.35-14.963,1.839-22.107c2.353-5.273,5.588-10.096,10.263-13.401c9.478-6.7,22.313-6.919,31.618,2.906
				c3.099,3.273,5.17,6.958,6.655,10.938c-0.257-0.077-0.514-0.148-0.778-0.206c-3.492-0.804-6.874-0.071-9.035,1.961
				c-1.569,1.473-2.437,3.505-3.279,5.466c-1.029,2.411-2,4.688-4.128,5.382c-1.402,0.463-2.951,0.077-4.591-0.328
				c-0.952-0.238-1.935-0.482-2.945-0.572c-3.942-0.347-7.916,1.891-9.646,5.44c-0.707,1.44-1.099,3.074-1.479,4.656
				c-0.682,2.816-1.318,5.479-3.575,6.315c-1.048,0.392-2.257,0.264-3.562,0.128C123.606,290.147,122.712,290.05,121.806,290.115z"
				/>
			<path style="fill:#F9F7F4;" d="M195.973,324.716c-2.231,0.341-4.308,0.765-6.45,0.804c-9.768,0.187-19.484-0.572-29.071-2.309
				c-8.533-1.55-16.333-5.118-23.722-9.697c-8.398-5.196-13.832-12.269-17.072-20.802c0.72-0.386,1.492-0.624,2.276-0.675
				c0.746-0.052,1.531,0.032,2.36,0.122c1.447,0.148,2.932,0.302,4.405-0.244c3.222-1.196,4.012-4.488,4.784-7.684
				c0.354-1.473,0.727-3.003,1.331-4.244c1.376-2.81,4.623-4.643,7.742-4.366c0.862,0.077,1.775,0.302,2.656,0.521
				c1.833,0.45,3.73,0.919,5.659,0.289c2.952-0.965,4.148-3.755,5.299-6.462c0.765-1.775,1.55-3.62,2.823-4.816
				c1.672-1.563,4.456-2.135,7.279-1.479c0.688,0.161,1.357,0.379,2.013,0.63c0.341,1.1,0.649,2.225,0.932,3.363
				c1.563,6.276,3.788,12.301,6.926,17.966c3.839,6.932,8.97,12.584,16.198,16.127c0.501,0.244,0.997,0.514,1.485,0.784
				c0.084,0.045,0.135,0.154,0.264,0.315C192.578,310.235,193.002,317.534,195.973,324.716z"/>
			<g>
				<path style="fill:#F3CCC5;" d="M318.967,202.286c-3.066-4.039-4.449-8.915-6.816-13.288c-0.809,0.162-1.595,0.386-2.354,0.668
					c-5.967,2.206-10.231,7.922-10.173,14.809c0.084,9.234,7.183,15.664,15.767,15.658c5.357-0.006,9.858-2.598,12.623-6.36
					c0.539-0.731,1.003-1.509,1.402-2.316C325.316,209.192,321.88,206.123,318.967,202.286z"/>
				<path style="fill:#F3CCC5;" d="M246.072,224.071c0.255,8.043-6.415,15.622-15.571,15.628
					c-8.586,0.006-15.684-6.42-15.767-15.659c-0.08-8.896,7.075-15.848,15.789-15.782
					C239.481,208.326,246.426,215.819,246.072,224.071z"/>
			</g>
			<path style="fill:#8C4C0F;" d="M281.829,196.148c-0.343-6.128,5.19-12.618,12.852-12.272c5.781,0.261,11.636,4.828,11.725,12.402
				c0.079,6.663-5.746,12.396-12.404,12.262C286.71,208.393,281.536,202.4,281.829,196.148z"/>
			<path style="fill:#91A695;" d="M285.071,200.618c5.677-5.851,11.857-7.354,18.845-2.124c1.463-8.344-5.372-13.267-11.254-12.23
				c1.167,0.068,2.324,0.215,3.434,0.567c1.587,0.503,2.712,1.927,2.74,3.341c0.035,1.781-1.184,2.481-2.587,3.002
				c-3.709,1.377-7.609,0.24-10.278-2.975C283.531,192.906,283.368,198.364,285.071,200.618z"/>
			<path style="fill:#BFD8C3;" d="M302.84,201.011c-2.097-2.917-6.078-4.23-9.828-3.072c-2.353,0.727-4.597,1.73-5.909,4.054
				c-0.424,0.75-0.321,1.249,0.317,1.856C291.909,208.121,300.206,206.612,302.84,201.011z"/>
			<path style="fill:#FFFAFA;" d="M288.435,190.089c2.368,1.537,4.682,1.694,7.106,0.981c0.452-0.133,1.115-0.226,1.068-0.892
				c-0.048-0.673-0.61-1.102-1.186-1.271C293.009,188.2,290.766,188.664,288.435,190.089z"/>
			<path style="fill:#8C4C0F;" d="M233.062,204.577c-0.343-6.128,5.19-12.618,12.852-12.272c5.781,0.261,11.635,4.828,11.725,12.402
				c0.079,6.663-5.746,12.396-12.404,12.262C237.944,216.822,232.77,210.829,233.062,204.577z"/>
			<path style="fill:#91A695;" d="M236.305,209.047c5.677-5.851,11.857-7.354,18.845-2.124c1.463-8.344-5.372-13.267-11.254-12.23
				c1.167,0.068,2.324,0.215,3.434,0.567c1.587,0.503,2.712,1.927,2.74,3.341c0.035,1.781-1.184,2.481-2.587,3.002
				c-3.709,1.377-7.609,0.241-10.278-2.975C234.765,201.335,234.602,206.792,236.305,209.047z"/>
			<path style="fill:#BFD8C3;" d="M254.074,209.44c-2.097-2.917-6.078-4.23-9.828-3.072c-2.353,0.727-4.597,1.73-5.909,4.054
				c-0.424,0.75-0.321,1.249,0.317,1.856C243.142,216.55,251.44,215.04,254.074,209.44z"/>
			<path style="fill:#FFFAFA;" d="M239.669,198.518c2.368,1.537,4.682,1.694,7.106,0.981c0.452-0.133,1.115-0.226,1.067-0.892
				c-0.048-0.673-0.61-1.102-1.186-1.271C244.243,196.629,242,197.093,239.669,198.518z"/>
			<path style="fill:#EAC4D1;" d="M284.852,260.72c0.565,0,1.139-0.065,1.693,0.012c1.898,0.264,2.968,2.08,1.973,3.601
				c-1.367,2.089-2.605,4.274-4.424,6.062c-3.335,3.279-7.292,4.03-11.503,2.011c-1.713-0.822-3.314-1.834-4.751-3.081
				c-2.396-2.079-1.802-5.254,1.114-6.5c2.506-1.07,5.188-1.036,7.797-1.415c2.679-0.389,5.396-0.513,8.097-0.753
				C284.85,260.678,284.851,260.699,284.852,260.72z"/>
			<path style="fill:#8C4C0F;" d="M287.05,302.133c-0.984,2.029-1.84,4.071-3.498,5.304c-1.562,1.162-1.605,2.479-1.374,4.03
				c0.51,3.425,1.043,6.85,2.415,10.069c0.289,0.678,0.408,1.354-0.367,1.725c-0.856,0.41-1.386-0.153-1.673-0.873
				c-1.121-2.803-1.82-5.722-2.254-8.705c-0.168-1.157-0.289-2.32-0.44-3.559c-1.199-0.118-2.321,0.466-3.491,0.251
				c-0.646-0.119-1.055-0.442-1.067-1.099c-0.013-0.683,0.414-1.052,1.071-1.053c4.716-0.006,6.91-3.126,8.56-6.912
				c0.305-0.699,0.479-1.458,0.815-2.14c0.52-1.056,1.591-1.146,2.138-0.124c0.671,1.253,1.204,2.408,2.974,2.404
				c2.044-0.004,3.551-0.848,4.71-2.405c2.364-3.176,2.853-6.901,2.551-10.651c-0.325-4.041-1.646-7.798-4.872-10.587
				c-0.343-0.296-0.625-0.645-1.099-0.809c-0.819-0.283-1.15-0.912-0.702-1.698c0.452-0.792,1.142-0.765,1.836-0.267
				c2.515,1.805,4.405,4.104,5.544,7.001c2.096,5.332,2.101,10.669-0.078,15.96c-1.294,3.141-4.216,5.971-8.306,5.619
				C289.167,303.506,288.083,303.071,287.05,302.133z"/>
			<path style="fill:#8C4C0F;" d="M273.672,223.484c-5.306,0.129-8.094-3.26-9.396-7.635c-0.296-0.993,0.127-2.018,0.914-2.802
				c1.638-1.63,3.244-3.293,4.906-4.898c1.771-1.709,3.452-1.913,5.584-0.73c1.43,0.793,2.805,1.651,4.005,2.801
				c3.105,2.977,3.3,6.848,0.407,10.126C278.393,222.271,276.301,223.434,273.672,223.484z"/>
			<path style="fill:#EAC4D1;" d="M267.215,217.292c1.212,2.349,2.827,3.715,5.299,3.947c2.679,0.252,4.848-0.644,6.306-2.928
				c1.344-2.104,1.474-4.213,0.398-5.4c-1.492-1.647-3.236-2.933-5.339-3.756c-0.942-0.368-1.524-0.048-2.206,0.479
				c-0.755,0.583-0.323,1.13-0.102,1.741C272.752,214.648,271.461,217.686,267.215,217.292z"/>
			<path style="fill:#FFFAFA;" d="M266.924,214.45c0.922,0.627,1.691,0.994,2.419,0.278c0.83-0.817,0.476-1.717,0.076-2.574
				C268.584,212.922,267.808,213.637,266.924,214.45z"/>
			<path style="fill:#8C4C0F;" d="M271.739,205.508c-1.886-0.391-3.768-1.586-5.059-3.616c-0.625-0.982-0.276-1.979,0.616-2.554
				c2.296-1.481,4.816-2.206,7.549-1.507c1.636,0.418,2.377,1.988,1.853,3.621C275.982,203.682,273.947,205.533,271.739,205.508z"/>
			<path style="fill:#8C4C0F;" d="M248.974,314.55c0.936,0.207,1.35,0.799,0.962,1.679c-0.908,2.063-0.73,4.057,0.198,6.037
				c0.344,0.735,0.425,1.438-0.426,1.813c-0.788,0.347-1.318-0.159-1.491-0.864c-0.422-1.719-2.339-2.816-1.893-4.921
				c0.264-1.244,0.733-2.309,1.555-3.247C248.168,314.716,248.55,314.598,248.974,314.55z"/>
			<path style="fill:#8C4C0F;" d="M286.765,340.388c0,0.308,0.033,0.62-0.007,0.922c-0.086,0.644-0.491,1.055-1.126,1.039
				c-0.659-0.017-1.043-0.482-0.998-1.132c0.164-2.4-1.031-3.944-3.025-5.053c-0.6-0.333-0.879-0.895-0.444-1.556
				c0.414-0.628,1-0.661,1.613-0.31C285.138,335.651,286.707,337.532,286.765,340.388z"/>
			<path style="fill:#8C4C0F;" d="M280.673,344.648c-0.057,0.488-0.03,0.868-0.156,1.188c-0.218,0.557-0.642,0.964-1.293,0.841
				c-0.575-0.108-0.891-0.55-0.818-1.124c0.23-1.81-0.893-2.81-2.172-3.714c-0.627-0.443-1.216-0.915-0.665-1.727
				c0.532-0.784,1.26-0.515,1.887-0.094C279.162,341.165,280.43,342.621,280.673,344.648z"/>
			<path style="fill:#8C4C0F;" d="M258.436,348.791c-0.084,0.564,0.043,1.171-0.256,1.766c-0.289,0.575-0.639,0.96-1.291,0.799
				c-0.64-0.157-0.916-0.652-0.774-1.291c0.394-1.772-0.032-3.33-1.148-4.728c-0.44-0.552-0.545-1.126,0.029-1.628
				c0.641-0.561,1.295-0.348,1.733,0.248C257.771,345.376,258.471,346.942,258.436,348.791z"/>
			<path style="fill:#8C4C0F;" d="M298.502,337.326c0.065,0.896-0.154,1.794-0.486,2.646c-0.238,0.61-0.744,1.046-1.453,0.781
				c-0.679-0.254-0.884-0.814-0.602-1.502c0.618-1.513,0.342-2.976-0.143-4.466c-0.228-0.699-0.499-1.62,0.57-1.915
				c1.005-0.277,1.292,0.504,1.524,1.287C298.215,335.183,298.549,336.198,298.502,337.326z"/>
			<path style="fill:#8C4C0F;" d="M252.472,349.136c-0.256,0.911-0.173,1.937-0.876,2.711c-0.471,0.519-1.043,0.666-1.644,0.287
				c-0.501-0.316-0.634-0.83-0.305-1.331c0.836-1.273,0.498-2.511,0-3.779c-0.301-0.765-0.657-1.681,0.442-2.058
				c0.972-0.333,1.252,0.48,1.568,1.234C252.055,347.148,252.314,348.115,252.472,349.136z"/>
			<path style="fill:#8C4C0F;" d="M304.036,336.91c0.111-1.206-0.576-2.138-1.109-3.111c-0.404-0.738-0.725-1.472,0.209-1.971
				c0.871-0.465,1.324,0.248,1.683,0.875c0.759,1.329,1.561,2.659,1.387,4.29c-0.086,0.803-0.291,1.632-1.304,1.558
				C303.908,338.48,303.941,337.666,304.036,336.91z"/>
			<path style="fill:#E8AAAA;" d="M249.098,146.926c2.984,3.063,7.049,2.804,9.722-0.326c0.769-0.901,1.359-1.913,1.76-3.04
				c1.037-2.91,0.525-5.643-0.914-8.269c-2.239-4.086-5.911-6.158-9.649-7.294c-3.378,0.052-5.478,1.309-6.776,3.673
				c-1.317,2.399-2.194,5.083-0.481,7.556C244.648,141.954,246.784,144.551,249.098,146.926z"/>
			<path style="fill:#8C4C0F;" d="M330.797,221.516c2.546-3.562,3.042-7.279,0.875-11.234c-0.347-0.63-0.733-1.222-1.158-1.781
				c-1.112-1.492-2.476-2.765-3.929-3.942c-4.199-3.382-7.826-7.189-10.121-12.186c-0.572-1.241-1.17-2.469-1.807-3.672
				c-3.067-5.839-6.919-11.131-12.269-15.291c-0.457-0.347-0.765-0.739-0.81-1.395c-0.135-1.839-0.283-3.685-0.598-5.492
				c-1.26-7.286-3.196-14.353-6.784-20.899c-3.73-6.803-8.771-12.089-16.34-14.565c-2.556-0.84-5.145-1.357-7.806-1.093
				c-1.348-2.398-3.153-4.561-5.276-6.575c-5.725-5.43-12.194-7.256-19.77-4.831c-1.131,0.362-2.258,0.736-3.534,1.152
				c0.075-0.4,0.096-0.595,0.149-0.781c1.81-6.398,4.857-12.259,7.921-18.106c5.785-11.04,13.196-20.75,23.254-28.288
				c0.773-0.579,1.507-0.947,2.511-0.875c1.798,0.129,3.586-0.054,5.33-0.534c1.7-0.468,2.47-1.587,2.1-3.002
				c-0.331-1.267-1.64-1.924-3.211-1.602c-2.172,0.444-4.326,0.614-6.551,0.204c-2.001-0.369-3.779-1.211-5.595-2.027
				c-1.423-0.639-2.743-0.238-3.35,0.911c-0.625,1.182-0.184,2.486,1.151,3.246c0.842,0.479,1.726,0.886,2.741,1.401
				c-7.752,6.27-13.95,13.62-18.938,21.958c-4.941,8.259-9.407,16.766-12.197,26.106c-1.579-1.066-3.029-2.097-4.53-3.05
				c-6.934-4.406-14.008-4.199-21.14-0.531c-10.079,5.185-15.604,19.973-12.202,31.465c-5.302,0.703-9.661,3.529-13.146,7.897
				c-5.421,6.791-7.665,14.719-7.903,23.278c-0.167,6.057-0.328,12.115-0.116,18.185c0.148,4.154-1.447,7.697-5.099,10.102
				c-1.897,1.247-3.569,2.759-5.003,4.533c-2.199,2.727-2.681,5.774-1.845,9.112c0.508,2.019,1.633,3.717,2.855,5.318
				c-1.659,2.534-3.132,4.958-2.919,8.057c0.302,4.559,2.842,7.684,6.314,10.224c0.746,0.547,0.92,0.952,0.656,1.878
				c-1.363,4.707-0.289,8.835,3.337,12.186c1.923,1.775,4.013,3.344,6.212,4.778c7.344,4.791,15.793,6.295,24.107,8.224
				c2.135,0.495,4.315,0.83,6.79,1.299c-4.366,3.755-7.819,7.806-10.977,12.128c-3.17,4.334-5.344,9.157-6.893,14.16
				c-0.424,0.174-0.63,0.013-0.862-0.103c-3.967-1.897-7.234-4.662-9.986-8.051c-4.662-5.742-7.536-12.385-9.601-19.413
				c-0.849-2.894-1.588-5.813-2.488-8.687c-2.862-9.15-8.668-16.005-17.182-20.153c-8.938-4.36-17.857-3.048-26.294,1.845
				c-3.344,1.942-6.16,4.533-8.662,7.549c-4.932,5.948-7.832,12.738-8.61,20.339c-0.605,5.954,0.251,11.845,1.749,17.658
				c2.823,10.957,8.321,20.146,17.606,26.795c7.909,5.659,16.571,9.819,26.075,11.98c9.427,2.148,19.066,2.617,28.692,3.061
				c3.833,0.18,7.562-0.502,11.33-0.894c0.958-0.103,1.44,0.232,1.923,1.061c1.595,2.765,3.543,5.292,5.871,7.485
				c6.122,5.762,13.234,10.031,20.95,13.227c7.556,3.125,15.606,3.775,23.683,3.736c3.369-0.019,6.694-0.836,9.742-2.469
				c1.878-1.01,3.331-2.514,4.778-4.051c0.322,0.193,0.54,0.315,0.746,0.457c5.266,3.607,10.668,3.627,16.249,0.752
				c3.382-1.743,6.18-4.186,8.809-6.964c0.714,0.521,1.492,0.752,2.276,0.965c6.938,1.858,13.118,0.219,18.532-4.289
				c4.366-3.646,5.253-8.405,2.746-13.343c-0.296-0.585-0.379-1.138-0.244-1.768c0.977-4.469,1.26-9.022,1.44-13.581
				c0.334-8.649-0.701-17.175-2.476-25.631c-1.685-8.044-4.482-15.613-9.253-22.378c-0.508-0.727-0.99-1.479-1.518-2.27
				c1.987-0.887,3.833-1.633,5.614-2.514c7.678-3.775,15.079-7.954,20.66-14.674c2.411-2.9,3.916-6.192,4.308-9.999
				c0.373-3.64-0.662-6.874-2.611-9.851C329.833,222.712,330.354,222.14,330.797,221.516z M189.523,325.52
				c-9.768,0.187-19.484-0.572-29.071-2.309c-8.533-1.55-16.333-5.118-23.722-9.697c-11.214-6.938-17.143-17.214-19.619-29.856
				c-1.479-7.562-1.35-14.963,1.839-22.107c2.353-5.273,5.588-10.096,10.263-13.401c9.478-6.7,22.313-6.919,31.618,2.906
				c4.527,4.778,6.855,10.437,8.385,16.61c1.563,6.276,3.788,12.301,6.926,17.966c3.839,6.932,8.97,12.584,16.198,16.127
				c0.501,0.244,0.997,0.514,1.485,0.784c0.084,0.045,0.135,0.154,0.264,0.315c-1.511,7.376-1.087,14.674,1.884,21.857
				C193.742,325.057,191.665,325.481,189.523,325.52z M292.267,152.635c0.328,0.797,0.637,1.614,0.939,2.431
				c1.595,4.366,2.598,8.88,3.26,13.716c-2.206-1.415-4.334-2.617-6.63-3.363c-0.026-1.884,0.264-3.749,0.379-5.62
				c0.135-2.18,0.643-4.315,1.595-6.315C291.946,153.2,292.081,152.892,292.267,152.635z M202.882,135.704
				c1.075-5.718,3.015-10.986,7.668-14.816c4.275-3.518,9.12-4.888,14.619-3.62c3.419,0.789,6.001,2.985,8.721,4.978
				c3.439,2.52,6.922,3.975,11.185,1.511c2.642-1.528,5.788-2.088,8.786-1.258c5.688,1.574,9.799,5.226,12.271,10.343
				c0.003,0.033-0.002,0.064,0.002,0.098c0.064,0.505,0.27,0.924,0.593,1.245c2.46,6.057,1.3,12.189-1.01,18.086
				c-3.602,9.198-11.808,13.456-21.657,12.542c-3.15-0.293-6.019-1.589-9.047-2.308c-0.601-0.143-1.128-0.167-1.584-0.09
				c-4.943-4.835-10.347-9.093-16.487-12.332c-4.054-2.143-8.412-3.533-12.959-3.934
				C202.807,142.763,202.201,139.327,202.882,135.704z M325.299,220.191c-2.932,1.685-3.099,3.157-0.637,5.408
				c1.588,1.453,2.373,3.299,2.508,5.421c0.257,3.955-1.389,7.163-3.948,10.006c-4.431,4.919-9.967,8.327-15.786,11.324
				c-3.048,1.563-6.09,3.196-9.427,4.025c-3.324,0.823-3.922,2.096-2,4.9c0.174,0.257,0.334,0.521,0.527,0.759
				c9.105,11.407,11.819,24.95,13.06,38.993c0.373,4.206,0.264,8.405,0.026,12.616c-0.206,3.691-0.63,7.337-1.447,10.944
				c-0.245,1.106-0.264,2.122,0.502,3.048c2.347,2.855,1.485,5.376-0.81,7.781c-1.428,1.498-3.273,2.508-5.17,3.267
				c-3.389,1.363-6.835,1.293-10.301,0.058c1.016-2.463,1.55-4.823,0.984-7.343c-0.746-3.337-3.151-5.299-5.807-7.048
				c-2.508-1.653-4.829-3.427-6.122-6.295c-1.923-4.289-4.038-8.494-5.479-12.989c-0.572-1.807-1.73-2.649-3.099-2.251
				c-1.395,0.405-2.103,1.768-1.498,3.505c1.993,5.762,4.282,11.407,7.459,16.635c1.685,2.765,4.566,4.225,7.093,6.051
				c3.279,2.379,3.82,4.861,1.749,8.353c-2.508,4.225-6.218,7.093-10.681,8.912c-3.112,1.26-6.193,0.913-9.105-0.958
				c-3.646-2.347-6.205-5.697-8.475-9.234c-4.585-7.118-9.112-14.269-14.745-20.622c-4.99-5.633-10.481-10.507-18.159-12.295
				c-4.681-1.093-8.822-0.096-12.764,2.302c-1.492,0.907-1.839,2.495-0.997,3.691c0.81,1.164,2.154,1.228,3.665,0.276
				c2.212-1.395,4.604-2.263,7.253-1.916c5.408,0.714,9.742,3.472,13.632,7.157c4.43,4.193,8.025,9.047,11.549,13.973
				c3.697,5.17,6.598,10.887,10.797,15.709c0.842,0.965,0.219,1.614-0.386,2.225c-1.473,1.505-3.286,2.456-5.324,2.919
				c-6.237,1.421-12.43,0.521-18.616-0.457c-6.983-1.1-13.028-4.398-18.905-8.083c-5.633-3.53-10.482-7.8-13.89-13.664
				c-5.118-8.81-5.517-18.005-2.874-27.58c2.926-10.604,9.452-18.699,17.664-25.676c1.993-1.698,4.09-2.437,6.72-2.219
				c3.64,0.309,7.279-0.257,10.925-0.302c1.543-0.019,2.521-0.99,2.553-2.328c0.026-1.337-0.971-2.321-2.514-2.328
				c-1.948-0.007-3.903,0.019-5.852,0.154c-3.389,0.238-6.797,0.334-10.166,0.051c-6.836-0.572-13.491-2.148-20.166-3.762
				c-6.958-1.678-13.214-4.469-18.725-9.054c-3.395-2.823-4.07-5.955-1.768-9.639c0.649-1.035,0.559-2.013-0.193-2.99
				c-0.977-1.267-2.444-1.858-3.64-2.81c-3.781-2.997-5.324-6.437-2.617-10.436c2.649-3.929,2.591-3.935-0.244-7.761
				c-1.807-2.443-2.27-5.858,0.514-8.301c0.964-0.849,1.833-1.801,2.913-2.514c5.221-3.421,7.446-8.366,7.472-14.488
				c0.032-6.623-0.199-13.246,0.257-19.87c0.444-6.495,2.296-12.443,6.199-17.683c3.427-4.598,7.826-7.305,13.78-6.861
				c6.861,0.508,12.886,3.222,18.262,7.305c3.871,2.945,7.806,5.852,11.079,9.523c0.907,1.016,2.257,1.003,3.189,0.206
				c0.109-0.094,0.205-0.196,0.292-0.302c0.489,0.137,0.977,0.276,1.458,0.436c4.286,1.425,8.62,2.034,13.157,1.407
				c7.971-1.102,14.195-4.816,18.185-11.878c3.468-6.137,4.927-12.778,4.178-19.811c-0.115-1.079-0.311-2.115-0.58-3.113
				c4.682,0.482,8.796,2.305,12.252,5.546c3.132,2.932,5.337,6.443,7.08,10.218c-0.823,0.72-1.312,1.704-1.749,2.707
				c-1.569,3.594-1.614,7.446-1.871,10.867v0.868c-1.357-0.167-2.482,0.514-2.771,1.717c-0.283,1.209,0.437,2.373,1.762,2.842
				c1.203,0.418,2.482,0.694,3.595,1.292c5.286,2.842,9.903,6.61,13.96,10.989c2.225,2.398,3.987,5.112,5.556,7.948
				c1.106,2,2.116,4.07,3.112,6.128c1.91,3.948,4.63,7.221,7.916,10.096c2.038,1.788,4.27,3.376,5.967,5.549
				c0.617,0.791,1.01,1.576,1.222,2.334C328.817,216.61,327.158,219.124,325.299,220.191z"/>
			<path style="fill:#8C4C0F;" d="M217.225,169.501c-3.395-2.521-7.067-4.469-11.208-5.479c-5.562-1.357-8.925,0.469-10.861,5.864
				c-0.971,2.701-0.907,5.53-1.241,8.405c0.116,1.299,0.148,2.688,0.379,4.051c0.463,2.733,1.428,3.762,3.511,3.987
				c0.887,0.09,1.743-0.142,2.553-0.418c5.491-1.871,10.707-4.321,15.606-7.421c0.81-0.514,1.62-1.196,2.115-2
				C219.907,173.527,219.784,171.405,217.225,169.501z M215.823,175.732c-1.395,1.492-3.26,2.283-5.016,3.215
				c-3.826,2.026-7.723,3.916-11.928,5.054c-1.299,0.347-2.019,0.006-2.257-1.428c-0.321-1.98-0.572-3.948-0.27-6.07
				c0.007-1.878,0.193-3.839,0.874-5.749c1.575-4.405,3.537-5.62,8.006-4.688c3.029,0.63,5.839,1.891,8.34,3.646
				c1.215,0.855,2.167,2.167,2.997,3.434C217.18,174.073,216.505,175.006,215.823,175.732z"/>
			<path style="fill:#F7E0DA;" d="M292.267,152.635c0.328,0.797,0.637,1.614,0.939,2.431c1.595,4.366,2.598,8.88,3.26,13.716
				c-2.206-1.415-4.334-2.617-6.63-3.363c-0.026-1.884,0.264-3.749,0.379-5.62c0.135-2.18,0.643-4.315,1.595-6.315
				C291.946,153.2,292.081,152.892,292.267,152.635z"/>
			<path style="fill:#F7E0DA;" d="M215.823,175.732c-1.395,1.492-3.26,2.283-5.016,3.215c-3.826,2.026-7.723,3.916-11.928,5.054
				c-1.299,0.347-2.019,0.006-2.257-1.428c-0.321-1.98-0.572-3.948-0.27-6.07c0.007-1.878,0.193-3.839,0.874-5.749
				c1.575-4.405,3.537-5.62,8.006-4.688c3.029,0.63,5.839,1.891,8.34,3.646c1.215,0.855,2.167,2.167,2.997,3.434
				C217.18,174.073,216.505,175.006,215.823,175.732z"/>
			<g>
				<g>
					<path style="fill:#8C4C0F;" d="M316.188,208.259c4.412,0.353,9.161,0.997,13.903,1.693c2.313,0.34,4.615,0.752,6.929,1.083
						c0.79,0.113,1.487,0.322,1.429,1.236c-0.06,0.943-0.775,1.082-1.584,0.958c-3.067-0.471-6.135-0.933-9.203-1.399
						c-3.933-0.597-7.883-1.051-11.846-1.385c-0.153-0.013-0.309,0.004-0.461-0.011c-0.88-0.086-1.95-0.139-1.901-1.301
						c0.05-1.183,1.081-0.963,1.901-0.878C315.507,208.272,315.662,208.259,316.188,208.259z"/>
					<path style="fill:#8C4C0F;" d="M312.411,215.038c0.274-0.888,0.876-1.084,1.758-0.712c1.594,0.672,3.228,1.256,4.788,1.996
						c4.559,2.163,9.126,4.306,13.8,6.213c0.662,0.27,1.308,0.584,1.939,0.921c0.638,0.341,1.119,0.844,0.743,1.613
						c-0.376,0.769-1.037,0.683-1.712,0.384c-2.371-1.053-4.742-2.107-7.12-3.144c-4.341-1.892-8.505-4.176-12.948-5.844
						C313.032,216.23,312.403,215.953,312.411,215.038z"/>
					<path style="fill:#8C4C0F;" d="M312.105,202.997c-0.645,0.048-1.095-0.181-1.238-0.755c-0.178-0.716,0.156-1.185,0.865-1.381
						c2.155-0.596,4.295-1.253,6.468-1.775c4.201-1.01,8.379-2.119,12.635-2.895c0.823-0.15,1.612-0.383,1.846,0.658
						c0.251,1.117-0.656,1.389-1.484,1.539c-5.771,1.042-11.419,2.603-17.097,4.037
						C313.412,202.599,312.733,202.816,312.105,202.997z"/>
				</g>
				<g>
					<path style="fill:#8C4C0F;" d="M227.852,219.533c-4.412,0.353-9.161,0.997-13.903,1.693c-2.313,0.34-4.615,0.752-6.929,1.083
						c-0.79,0.113-1.487,0.322-1.429,1.236c0.06,0.943,0.775,1.082,1.584,0.958c3.067-0.471,6.135-0.933,9.203-1.399
						c3.933-0.597,7.883-1.051,11.846-1.385c0.153-0.013,0.309,0.004,0.461-0.011c0.88-0.086,1.95-0.139,1.901-1.301
						c-0.05-1.183-1.081-0.963-1.901-0.878C228.534,219.546,228.378,219.533,227.852,219.533z"/>
					<path style="fill:#8C4C0F;" d="M231.629,226.311c-0.274-0.888-0.876-1.084-1.758-0.712c-1.594,0.672-3.228,1.256-4.788,1.996
						c-4.559,2.163-9.126,4.306-13.8,6.213c-0.662,0.27-1.308,0.584-1.939,0.921c-0.637,0.341-1.119,0.844-0.743,1.613
						c0.376,0.769,1.037,0.683,1.712,0.383c2.371-1.053,4.742-2.107,7.12-3.144c4.341-1.892,8.505-4.176,12.948-5.844
						C231.009,227.504,231.638,227.227,231.629,226.311z"/>
					<path style="fill:#8C4C0F;" d="M231.935,214.271c0.645,0.048,1.095-0.181,1.238-0.755c0.178-0.716-0.156-1.185-0.865-1.381
						c-2.155-0.596-4.295-1.253-6.468-1.775c-4.201-1.009-8.379-2.119-12.635-2.895c-0.823-0.15-1.612-0.383-1.846,0.658
						c-0.251,1.117,0.656,1.389,1.484,1.539c5.771,1.042,11.419,2.603,17.097,4.037C230.628,213.873,231.307,214.09,231.935,214.271
						z"/>
				</g>
			</g>
		</g>
	</g>
	<g>
		<path style="fill:#F9E2AF;" d="M340.39,185.668c-0.004-0.903-0.458-1.579-1.382-1.564c-0.927,0.016-1.474,0.646-1.575,1.553
			c0.041,1.079,0.652,1.551,1.599,1.561C340.024,187.227,340.395,186.561,340.39,185.668z"/>
		<path style="fill:#F9E2AF;" d="M142.081,185.318c-0.004-0.903-0.458-1.579-1.382-1.564c-0.927,0.016-1.474,0.646-1.575,1.553
			c0.041,1.079,0.652,1.551,1.599,1.561C141.715,186.877,142.086,186.211,142.081,185.318z"/>
		<path style="fill:#F9E2AF;" d="M353.957,172.477c0.067-0.724-0.251-1.368-1.044-1.379c-0.822-0.012-1.597,0.372-1.685,1.298
			c-0.081,0.85,0.592,1.169,1.219,1.299C353.419,173.739,353.884,173.27,353.957,172.477z"/>
		<path style="fill:#F9E2AF;" d="M346.729,137.66c1.498,8.486,2.713,9.701,11.199,11.199c-8.486,1.498-9.701,2.713-11.199,11.199
			c-1.498-8.486-2.713-9.701-11.199-11.199C344.016,147.361,345.231,146.146,346.729,137.66z"/>
		<path style="fill:#F9E2AF;" d="M136.871,200.859c1.498,8.486,2.713,9.701,11.199,11.199c-8.486,1.498-9.701,2.713-11.199,11.199
			c-1.498-8.486-2.713-9.701-11.199-11.199C134.158,210.56,135.373,209.346,136.871,200.859z"/>
		<path style="fill:#F9E2AF;" d="M332.233,133.396c0.749,4.243,1.357,4.85,5.6,5.6c-4.243,0.749-4.85,1.356-5.6,5.6
			c-0.749-4.243-1.356-4.85-5.6-5.6C330.877,138.246,331.484,137.639,332.233,133.396z"/>
		<path style="fill:#F9E2AF;" d="M353.734,220.839c0.749,4.243,1.356,4.85,5.599,5.6c-4.243,0.749-4.85,1.356-5.599,5.6
			c-0.749-4.243-1.356-4.85-5.6-5.6C352.378,225.689,352.985,225.082,353.734,220.839z"/>
		<path style="fill:#F9E2AF;" d="M157.191,190.095c0.749,4.243,1.356,4.851,5.599,5.6c-4.243,0.749-4.85,1.356-5.599,5.6
			c-0.749-4.243-1.356-4.85-5.6-5.6C155.835,194.946,156.442,194.338,157.191,190.095z"/>
	</g>
</g>
</svg>
